<svg width="42" height="42" viewBox="0 0 42 42" fill="none" xmlns="http://www.w3.org/2000/svg">
<path fill-rule="evenodd" clip-rule="evenodd" d="M22.2374 7.51256C21.554 6.82915 20.446 6.82915 19.7626 7.51256C19.0791 8.19598 19.0791 9.30402 19.7626 9.98744L29.0251 19.25H8.75C7.7835 19.25 7 20.0335 7 21C7 21.9665 7.7835 22.75 8.75 22.75H29.0251L19.7626 32.0126C19.0791 32.696 19.0791 33.804 19.7626 34.4874C20.446 35.1709 21.554 35.1709 22.2374 34.4874L34.4862 22.2387C34.4904 22.2345 34.4946 22.2302 34.4988 22.226C34.8077 21.9114 34.9986 21.4806 35 21.0052C35 21.0035 35 21.0018 35 21C35 20.9983 35 20.9965 35 20.9948C34.9993 20.7594 34.9521 20.5349 34.8672 20.3301C34.7838 20.1284 34.661 19.9391 34.4988 19.774C34.4947 19.7698 34.4905 19.7657 34.4864 19.7615M34.4864 19.7615L22.2374 7.51256L34.4864 19.7615Z" fill="#B4B4B4"/>
</svg>
