<svg width="12" height="21" viewBox="0 0 12 21" fill="none" xmlns="http://www.w3.org/2000/svg">
<path d="M11.4978 9.34189L2.66869 0.464751C2.52368 0.317487 2.35115 0.200601 2.16106 0.120835C1.97097 0.0410681 1.76708 0 1.56115 0C1.35522 0 1.15133 0.0410681 0.961244 0.120835C0.771154 0.200601 0.598626 0.317487 0.453612 0.464751C0.163076 0.75913 0 1.15735 0 1.57243C0 1.98751 0.163076 2.38573 0.453612 2.68011L8.17519 10.536L0.453612 18.3133C0.163076 18.6077 0 19.0059 0 19.421C0 19.8361 0.163076 20.2343 0.453612 20.5286C0.598083 20.6771 0.770368 20.7952 0.960483 20.8761C1.1506 20.957 1.35476 20.9991 1.56115 21C1.76754 20.9991 1.97171 20.957 2.16182 20.8761C2.35194 20.7952 2.52422 20.6771 2.66869 20.5286L11.4978 11.6515C11.6562 11.5044 11.7825 11.3258 11.8689 11.1271C11.9554 10.9283 12 10.7137 12 10.4967C12 10.2797 11.9554 10.0651 11.8689 9.86633C11.7825 9.66758 11.6562 9.48902 11.4978 9.34189Z" fill="white"/>
</svg>
