<svg width="64" height="57" viewBox="0 0 64 57" fill="none" xmlns="http://www.w3.org/2000/svg">
<path d="M38 54.4873L38 44.2526C38 42.8646 39.1078 41.7399 40.4744 41.7399C45.3503 41.7399 48.0025 36.6605 48.3701 26.6354L40.4744 26.6354C39.1078 26.6354 38 25.5097 38 24.1222L38 2.51219C38 1.12485 39.1078 -5.99084e-06 40.4744 -5.87137e-06L61.5261 -4.03097e-06C62.8932 -3.91146e-06 64 1.12572 64 2.51219L64 24.1222C64 28.928 63.5236 33.3381 62.5844 37.2315C61.6212 41.2237 60.1427 44.7142 58.1912 47.6064C56.1832 50.5788 53.6714 52.9112 50.725 54.5361C47.7588 56.1709 44.3094 57 40.4736 57C39.1078 57 38 55.8753 38 54.4873Z" fill="#5F5F5F"/>
<path d="M-1.68768e-06 54.4873L-7.92936e-07 44.2526C-6.71589e-07 42.8646 1.10782 41.7399 2.47443 41.7399C7.35028 41.7399 10.0025 36.6605 10.3701 26.6354L2.47443 26.6354C1.10782 26.6354 8.4562e-07 25.5097 9.66921e-07 24.1222L2.85613e-06 2.51219C2.97741e-06 1.12485 1.10782 -5.99084e-06 2.47443 -5.87137e-06L23.5261 -4.03097e-06C24.8932 -3.91146e-06 26 1.12572 26 2.51219L26 24.1222C26 28.928 25.5236 33.3381 24.5844 37.2315C23.6212 41.2237 22.1427 44.7142 20.1912 47.6064C18.1832 50.5788 15.6714 52.9112 12.725 54.5361C9.7588 56.1709 6.30941 57 2.47356 57C1.10782 57 -1.80903e-06 55.8753 -1.68768e-06 54.4873Z" fill="#5F5F5F"/>
</svg>
