<svg width="64" height="57" viewBox="0 0 64 57" fill="none" xmlns="http://www.w3.org/2000/svg">
<path d="M26 2.51272V12.7474C26 14.1354 24.8922 15.2601 23.5256 15.2601C18.6497 15.2601 15.9975 20.3395 15.6299 30.3646H23.5256C24.8922 30.3646 26 31.4903 26 32.8778V54.4878C26 55.8752 24.8922 57 23.5256 57H2.47391C1.10678 57 0 55.8743 0 54.4878V32.8778C0 28.072 0.47641 23.6619 1.41557 19.7685C2.37877 15.7763 3.8573 12.2858 5.80878 9.39358C7.81683 6.42122 10.3286 4.08877 13.275 2.46388C16.2412 0.82914 19.6906 0 23.5264 0C24.8922 0 26 1.12467 26 2.51272Z" fill="#5F5F5F"/>
<path d="M64 2.51272V12.7474C64 14.1354 62.8922 15.2601 61.5256 15.2601C56.6497 15.2601 53.9975 20.3395 53.6299 30.3646H61.5256C62.8922 30.3646 64 31.4903 64 32.8778V54.4878C64 55.8752 62.8922 57 61.5256 57H40.4739C39.1068 57 38 55.8743 38 54.4878V32.8778C38 28.072 38.4764 23.6619 39.4156 19.7685C40.3788 15.7763 41.8573 12.2858 43.8088 9.39358C45.8168 6.42122 48.3286 4.08877 51.275 2.46388C54.2412 0.82914 57.6906 0 61.5264 0C62.8922 0 64 1.12467 64 2.51272Z" fill="#5F5F5F"/>
</svg>
