<svg width="14" height="14" viewBox="0 0 14 14" fill="none" xmlns="http://www.w3.org/2000/svg">
<path d="M12.5602 5.21333L3.22683 0.546665C2.85849 0.363337 2.44258 0.298072 2.03579 0.359766C1.629 0.42146 1.25114 0.607111 0.953719 0.891408C0.656301 1.17571 0.4538 1.54481 0.373827 1.9484C0.293853 2.352 0.340299 2.77043 0.506832 3.14666L2.10683 6.72666C2.14314 6.81322 2.16183 6.90614 2.16183 7C2.16183 7.09386 2.14314 7.18678 2.10683 7.27333L0.506832 10.8533C0.371298 11.1578 0.314002 11.4913 0.34015 11.8236C0.366297 12.1558 0.47506 12.4763 0.656553 12.7558C0.838046 13.0353 1.08652 13.2651 1.37938 13.4241C1.67224 13.5832 2.00022 13.6666 2.3335 13.6667C2.64565 13.6635 2.95316 13.5907 3.2335 13.4533L12.5668 8.78666C12.8979 8.62012 13.1762 8.36487 13.3706 8.04938C13.5651 7.7339 13.668 7.37059 13.668 7C13.668 6.6294 13.5651 6.2661 13.3706 5.95061C13.1762 5.63513 12.8979 5.37987 12.5668 5.21333H12.5602ZM11.9668 7.59333L2.6335 12.26C2.51094 12.3188 2.37332 12.3388 2.23909 12.3172C2.10486 12.2956 1.98044 12.2335 1.88251 12.1392C1.78458 12.0449 1.71782 11.9229 1.69119 11.7896C1.66455 11.6563 1.67932 11.518 1.7335 11.3933L3.32683 7.81333C3.34746 7.76553 3.36527 7.71655 3.38016 7.66666H7.9735C8.15031 7.66666 8.31988 7.59643 8.4449 7.4714C8.56993 7.34638 8.64016 7.17681 8.64016 7C8.64016 6.82319 8.56993 6.65362 8.4449 6.52859C8.31988 6.40357 8.15031 6.33333 7.9735 6.33333H3.38016C3.36527 6.28344 3.34746 6.23447 3.32683 6.18666L1.7335 2.60666C1.67932 2.48197 1.66455 2.3437 1.69119 2.21038C1.71782 2.07706 1.78458 1.95507 1.88251 1.86076C1.98044 1.76646 2.10486 1.70435 2.23909 1.68277C2.37332 1.66118 2.51094 1.68115 2.6335 1.74L11.9668 6.40666C12.076 6.46261 12.1677 6.54761 12.2317 6.65229C12.2957 6.75698 12.3295 6.8773 12.3295 7C12.3295 7.1227 12.2957 7.24301 12.2317 7.3477C12.1677 7.45239 12.076 7.53739 11.9668 7.59333Z" fill="#333333"/>
</svg>
