<svg width="1440" height="686" viewBox="0 0 1440 686" fill="none" xmlns="http://www.w3.org/2000/svg">
<path d="M0 0.236755V17.0045C13.4191 119.565 52.2486 264.732 128.01 392.285C209.345 529.224 333.324 645.975 514.214 667.729C627.226 681.32 708.78 658.826 775.751 621.065C828.326 591.422 871.921 552.355 914.636 514.076C926.278 503.644 937.854 493.27 949.528 483.162C1004.09 435.923 1060.87 394.4 1136.8 379.192C1212.74 363.984 1307.98 375.06 1439.49 433.366L1440 432.211V431.406C1308.41 373.112 1212.82 361.927 1136.41 377.231C1059.95 392.544 1002.84 434.356 948.219 481.65C936.49 491.805 924.878 502.211 913.215 512.662L913.212 512.664C870.518 550.922 827.134 589.798 774.768 619.323C708.163 656.878 627.036 679.283 514.453 665.743C334.392 644.089 210.876 527.884 129.729 391.264C49.9689 256.977 11.2168 103.077 0 0.236755Z" fill="url(#paint0_linear)"/>
<path d="M0 67.7576V78.651C18.6843 175.576 57.9923 296.808 124.015 405.294C207.351 542.23 333.329 658.976 514.214 680.729C627.208 694.318 708.873 674.146 776.026 639.866C828.001 613.335 871.29 578.339 913.618 544.12L913.621 544.117C925.928 534.169 938.153 524.285 950.487 514.695C1005.29 472.086 1062.31 435.171 1138.45 423.418C1214.3 411.709 1309.25 424.955 1440 482.708V480.522C1309.45 422.977 1214.34 409.679 1138.14 421.442C1061.5 433.273 1004.14 470.443 949.259 513.116C936.865 522.754 924.601 532.667 912.272 542.634L912.263 542.642C869.961 576.838 826.888 611.658 775.117 638.085C708.319 672.183 627.053 692.285 514.453 678.743C334.387 657.088 208.87 540.879 125.723 404.254C57.4288 292.035 17.7735 166.12 0 67.7576Z" fill="url(#paint1_linear)"/>
<defs>
<linearGradient id="paint0_linear" x1="1426.5" y1="673.5" x2="-16.0001" y2="673.5" gradientUnits="userSpaceOnUse">
<stop stop-color="#FDD028" stop-opacity="0"/>
<stop offset="0.274464" stop-color="#FDD028"/>
<stop offset="0.89883" stop-color="#FDD028"/>
<stop offset="1" stop-color="#FDD028" stop-opacity="0"/>
</linearGradient>
<linearGradient id="paint1_linear" x1="1426.5" y1="673.5" x2="-16.0001" y2="673.5" gradientUnits="userSpaceOnUse">
<stop stop-color="#FDD028" stop-opacity="0"/>
<stop offset="0.274464" stop-color="#FDD028"/>
<stop offset="0.89883" stop-color="#FDD028"/>
<stop offset="1" stop-color="#FDD028" stop-opacity="0"/>
</linearGradient>
</defs>
</svg>
