<svg width="20" height="21" viewBox="0 0 20 21" fill="none" xmlns="http://www.w3.org/2000/svg">
<path d="M10 0.140625C4.47714 0.140625 0 4.61776 0 10.1406C0 15.6635 4.47714 20.1406 10 20.1406C15.5229 20.1406 20 15.6635 20 10.1406C20 4.61776 15.5229 0.140625 10 0.140625ZM13.815 5.23321L12.4319 5.23382C11.3473 5.23382 11.1376 5.74922 11.1376 6.50543V8.17295H13.724L13.7228 10.7847H11.1378V17.4871H8.4401V10.7847H6.18496V8.17295H8.4401V6.24681C8.4401 4.01152 9.80583 2.79413 11.7997 2.79413L13.8152 2.7972L13.815 5.23321Z" fill="#DFDFDF"/>
</svg>
