<svg width="87" height="45" viewBox="0 0 87 45" fill="none" xmlns="http://www.w3.org/2000/svg">
<path fill-rule="evenodd" clip-rule="evenodd" d="M26.7363 33.0329C27.7004 35.8011 28.8039 38.1228 29.9613 40.132C30.0128 40.2206 30.0636 40.3086 30.115 40.3963L29.2819 40.5234C26.2968 38.8228 19.6868 34.4672 16.4361 28.4099C12.5139 21.1019 13.3425 13.6948 16.7161 11.528C18.6814 10.2657 21.9221 11.4998 22.377 14.8421C22.377 14.8421 21.9221 14.1195 20.9413 14.417C19.9613 14.7145 19.458 16.7766 20.4161 17.8159C21.4083 18.8923 22.7972 18.7508 23.2878 17.4762C23.3007 17.4421 23.314 17.4037 23.3272 17.3615C23.383 17.2392 23.4296 17.1078 23.468 16.9693C23.4993 16.8551 23.5247 16.7357 23.5445 16.612C23.5752 17.1491 23.6126 17.6995 23.6595 18.2631C23.7898 19.8404 23.9872 21.5167 24.2733 23.2645C24.7778 26.3463 25.5585 29.6513 26.7363 33.0329V33.0329ZM58.0772 36.9974C58.6425 35.7794 59.1823 34.4596 59.6839 33.0188C60.8618 29.6373 61.6425 26.3322 62.147 23.2504C62.433 21.5026 62.6299 19.8269 62.7607 18.2495C62.8406 17.2835 62.8953 16.3546 62.9301 15.4687C62.936 16.2961 63.0417 16.9833 63.1588 17.3618C63.1719 17.4037 63.1848 17.4421 63.1981 17.4762C63.6882 18.7508 65.0772 18.8923 66.0693 17.8159C67.0276 16.7765 66.5246 14.7145 65.5443 14.417C64.5639 14.1195 64.1086 14.8421 64.1086 14.8421C64.5639 11.4998 67.8043 10.2657 69.7694 11.528C73.1432 13.6948 73.9718 21.1019 70.05 28.4099C68.3085 31.6541 65.6034 34.4102 63.008 36.5319L58.0772 36.9974V36.9974ZM67.6787 36.0912C68.2167 35.5843 68.7588 35.0155 69.3078 34.3675C71.6985 31.5471 74.5114 27.4001 75.0229 22.2721C75.7015 15.4699 72.8656 8.31867 68.1005 8.76632C64.2551 9.12742 63.1346 12.2156 62.9569 14.6567C63.108 9.01361 62.4635 5.3172 62.4635 5.3172C62.1985 4.96584 61.8724 4.63635 61.4951 4.32685C60.9517 3.88146 60.3019 3.47847 59.5755 3.11441C58.7199 2.68605 57.7571 2.31087 56.7354 1.98469C52.751 0.711417 47.8652 0.172548 44.901 0.0364746C44.1317 0.00119739 43.4918 -0.00731977 43.031 0.00588759C41.453 -0.0243541 38.691 0.146464 35.7201 0.610793C33.9827 0.882407 32.1735 1.25411 30.4884 1.7452C30.0523 1.87224 29.6246 2.00692 29.2088 2.1501C28.7469 2.3091 28.3002 2.47837 27.8718 2.65788C26.9612 3.04018 26.1364 3.47046 25.4423 3.95303C24.8393 4.37201 24.3345 4.83026 23.9568 5.33126C23.9568 5.33126 23.3689 8.702 23.4472 13.9207C23.1043 11.6345 21.8521 9.09197 18.3852 8.76631C13.6198 8.31865 10.7841 15.4699 11.4626 22.2721C11.9746 27.4 14.7871 31.5471 17.1777 34.3675C20.2924 38.0423 23.1732 39.1587 26.3516 40.9713L0 44.9995L43.3904 40.9032L86.4856 34.3155L67.6787 36.0911V36.0912Z" fill="#F8AF30"/>
<path fill-rule="evenodd" clip-rule="evenodd" d="M26.7363 33.0329C27.7004 35.8011 28.8039 38.1228 29.9613 40.132C30.0128 40.2206 30.0636 40.3086 30.115 40.3963L29.2819 40.5234C26.2968 38.8228 19.6868 34.4672 16.4361 28.4099C12.5139 21.1019 13.3425 13.6948 16.7161 11.528C18.6814 10.2657 21.9221 11.4998 22.377 14.8421C22.377 14.8421 21.9221 14.1195 20.9413 14.417C19.9613 14.7145 19.458 16.7766 20.4161 17.8159C21.4083 18.8923 22.7972 18.7508 23.2878 17.4762C23.3007 17.4421 23.314 17.4037 23.3272 17.3615C23.383 17.2392 23.4296 17.1078 23.468 16.9693C23.4993 16.8551 23.5247 16.7357 23.5445 16.612C23.5752 17.1491 23.6126 17.6995 23.6595 18.2631C23.7898 19.8404 23.9872 21.5167 24.2733 23.2645C24.7778 26.3463 25.5585 29.6513 26.7363 33.0329V33.0329ZM58.0772 36.9974C58.6425 35.7794 59.1823 34.4596 59.6839 33.0188C60.8618 29.6373 61.6425 26.3322 62.147 23.2504C62.433 21.5026 62.6299 19.8269 62.7607 18.2495C62.8406 17.2835 62.8953 16.3546 62.9301 15.4687C62.936 16.2961 63.0417 16.9833 63.1588 17.3618C63.1719 17.4037 63.1848 17.4421 63.1981 17.4762C63.6882 18.7508 65.0772 18.8923 66.0693 17.8159C67.0276 16.7765 66.5246 14.7145 65.5443 14.417C64.5639 14.1195 64.1086 14.8421 64.1086 14.8421C64.5639 11.4998 67.8043 10.2657 69.7694 11.528C73.1432 13.6948 73.9718 21.1019 70.05 28.4099C68.3085 31.6541 65.6034 34.4102 63.008 36.5319L58.0772 36.9974V36.9974ZM67.6787 36.0912C68.2167 35.5843 68.7588 35.0155 69.3078 34.3675C71.6985 31.5471 74.5114 27.4001 75.0229 22.2721C75.7015 15.4699 72.8656 8.31867 68.1005 8.76632C64.2551 9.12742 63.1346 12.2156 62.9569 14.6567C63.108 9.01361 62.4635 5.3172 62.4635 5.3172C62.1985 4.96584 61.8724 4.63635 61.4951 4.32685C60.9517 3.88146 60.3019 3.47847 59.5755 3.11441C58.7199 2.68605 57.7571 2.31087 56.7354 1.98469C52.751 0.711417 47.8652 0.172548 44.901 0.0364746C44.1317 0.00119739 43.4918 -0.00731977 43.031 0.00588759C41.453 -0.0243541 38.691 0.146464 35.7201 0.610793C33.9827 0.882407 32.1735 1.25411 30.4884 1.7452C30.0523 1.87224 29.6246 2.00692 29.2088 2.1501C28.7469 2.3091 28.3002 2.47837 27.8718 2.65788C26.9612 3.04018 26.1364 3.47046 25.4423 3.95303C24.8393 4.37201 24.3345 4.83026 23.9568 5.33126C23.9568 5.33126 23.3689 8.702 23.4472 13.9207C23.1043 11.6345 21.8521 9.09197 18.3852 8.76631C13.6198 8.31865 10.7841 15.4699 11.4626 22.2721C11.9746 27.4 14.7871 31.5471 17.1777 34.3675C20.2924 38.0423 23.1732 39.1587 26.3516 40.9713L0 44.9995L43.3904 40.9032L86.4856 34.3155L67.6787 36.0911V36.0912Z" fill="#FEFEFE"/>
<path fill-rule="evenodd" clip-rule="evenodd" d="M84.5106 34.617L84.3678 34.5152L86.4855 34.3152L84.5106 34.617Z" fill="#F6BF2F"/>
<path fill-rule="evenodd" clip-rule="evenodd" d="M84.3679 34.5149L84.5107 34.6167L82.5488 34.9168V34.6866L84.3679 34.5149Z" fill="#FDD028"/>
<path fill-rule="evenodd" clip-rule="evenodd" d="M73.1209 11.8888L72.7224 12.1736V11.2689C72.8608 11.4663 72.9935 11.6731 73.1209 11.8888V11.8888Z" fill="#FDD028"/>
<path fill-rule="evenodd" clip-rule="evenodd" d="M73.6042 12.8016L72.7224 12.172L73.1209 11.8872C73.2922 12.1771 73.4534 12.4824 73.6042 12.8016H73.6042Z" fill="#FBDA25"/>
<path fill-rule="evenodd" clip-rule="evenodd" d="M72.7224 12.1733L73.6042 12.8029C74.8233 15.3851 75.3621 18.8723 75.0228 22.272C74.9326 23.1788 74.77 24.0545 74.5506 24.8976L72.7224 26.2025V12.1733V12.1733Z" fill="#FBDA25"/>
<path fill-rule="evenodd" clip-rule="evenodd" d="M73.8621 27.0171L72.7224 26.2033L74.5506 24.8984C74.3607 25.6295 74.1278 26.3363 73.8621 27.0171V27.0171Z" fill="#F8AF30"/>
<path fill-rule="evenodd" clip-rule="evenodd" d="M72.7224 26.2035L73.8621 27.0173C73.5277 27.8737 73.1411 28.6892 72.7224 29.4622V26.2035ZM80.1748 34.9125L79.5172 35.3819L72.7224 36.4202V35.6158L80.1748 34.9125V34.9125Z" fill="#F6BF2F"/>
<path fill-rule="evenodd" clip-rule="evenodd" d="M79.5171 35.3799L80.1746 34.9105L82.5486 34.6862V34.9164L79.5171 35.3799Z" fill="#FBDA25"/>
<path fill-rule="evenodd" clip-rule="evenodd" d="M67.9691 8.78114L72.7223 12.1741L71.326 13.1707C70.8973 12.4755 70.3746 11.9175 69.7693 11.5287C67.8042 10.2664 64.5638 11.5006 64.1085 14.8428C64.1085 14.8428 64.5638 14.1203 65.5441 14.4178C66.2033 14.6176 66.6463 15.6144 66.5751 16.562L63.9995 18.4007C63.6579 18.237 63.3716 17.9284 63.198 17.4769C63.1847 17.4429 63.1718 17.4045 63.1587 17.3626C63.0416 16.9841 62.9359 16.2968 62.93 15.4695C62.9203 15.7206 62.9087 15.975 62.8956 16.2329V9.72196C62.969 11.1066 63.0072 12.7735 62.9568 14.6574C63.1324 12.2445 64.2299 9.19976 67.9691 8.78113V8.78114Z" fill="#FBDA25"/>
<path fill-rule="evenodd" clip-rule="evenodd" d="M72.7224 26.2025L71.4447 25.2907C73.2146 20.3912 72.9457 15.7973 71.3261 13.1699L72.7224 12.1733V26.2025V26.2025ZM63.9996 18.3999L66.5752 16.5612C66.5411 17.0242 66.3834 17.4747 66.0693 17.8159C65.4287 18.5112 64.6223 18.698 63.9996 18.3999V18.3999Z" fill="#FBDA25"/>
<path fill-rule="evenodd" clip-rule="evenodd" d="M71.4447 25.2916L72.7224 26.2034L70.2985 27.9337C70.7482 27.0497 71.1292 26.1659 71.4447 25.2916V25.2916Z" fill="#F8AF30"/>
<path fill-rule="evenodd" clip-rule="evenodd" d="M68.3246 37.0925L65.0396 34.7483C66.9476 32.942 68.7621 30.8102 70.05 28.4108C70.1354 28.2518 70.2174 28.0928 70.2985 27.9338L72.7224 26.2035V29.4622C71.6852 31.3746 70.4487 33.0227 69.3078 34.3684C68.7588 35.0164 68.2167 35.5852 67.6788 36.0921L72.7224 35.6158V36.4202L68.3246 37.0925L68.3246 37.0925Z" fill="#F8AF30"/>
<path fill-rule="evenodd" clip-rule="evenodd" d="M65.0397 34.7471L68.3247 37.0913L62.8959 37.9213V36.5422L63.0082 36.5316C63.6843 35.9792 64.3681 35.3831 65.0397 34.7471L65.0397 34.7471Z" fill="#FDD028"/>
<path fill-rule="evenodd" clip-rule="evenodd" d="M62.4855 5.4504L53.0694 12.1724V1.04517C54.3213 1.30078 55.5671 1.61029 56.7354 1.98372C57.7572 2.30991 58.7199 2.68509 59.5755 3.11344C60.302 3.47751 60.9518 3.8805 61.4952 4.32588C61.8724 4.63538 62.1986 4.96486 62.4635 5.31624L62.4855 5.4504V5.4504Z" fill="#FBE524"/>
<path fill-rule="evenodd" clip-rule="evenodd" d="M62.6902 19.0409L53.0694 12.1727L62.4854 5.45068C62.5549 5.89417 62.7737 7.41733 62.8958 9.72056V16.2315C62.8622 16.8833 62.8181 17.5565 62.7607 18.2488C62.7391 18.5102 62.7159 18.774 62.6902 19.0409V19.0409Z" fill="#FBE524"/>
<path fill-rule="evenodd" clip-rule="evenodd" d="M53.0694 12.1733L62.6902 19.0415L62.6593 19.3569L53.0694 26.2025V12.1733Z" fill="#FDD028"/>
<path fill-rule="evenodd" clip-rule="evenodd" d="M60.2438 31.3251L53.0694 26.2039L62.6593 19.3583C62.5346 20.6053 62.3668 21.9072 62.147 23.2517C61.7272 25.8163 61.1156 28.5358 60.2438 31.3251Z" fill="#FBE524"/>
<path fill-rule="evenodd" clip-rule="evenodd" d="M53.0694 26.2035L60.2438 31.3247C60.0681 31.8871 59.8813 32.4522 59.684 33.0197C59.2507 34.2636 58.7891 35.4168 58.3074 36.4927L54.5087 39.2045L53.0694 39.4244V26.2035L53.0694 26.2035Z" fill="#FDD028"/>
<path fill-rule="evenodd" clip-rule="evenodd" d="M54.5085 39.2037L58.3073 36.4919C58.231 36.6621 58.1543 36.831 58.0771 36.9976L62.8956 36.5427V37.9218L54.5085 39.2037V39.2037Z" fill="#F6BF2F"/>
<path fill-rule="evenodd" clip-rule="evenodd" d="M49.7821 0.491101L43.243 5.15856V0.0015651C43.6804 -0.00433361 44.2433 0.0062553 44.9009 0.036497C46.2274 0.0974983 47.9388 0.239125 49.7821 0.491101V0.491101Z" fill="#FBE524"/>
<path fill-rule="evenodd" clip-rule="evenodd" d="M53.0693 12.1727L43.243 5.15782L49.7821 0.490356C50.8497 0.635968 51.9623 0.819318 53.0693 1.0454V12.1727Z" fill="#F6BF2F"/>
<path fill-rule="evenodd" clip-rule="evenodd" d="M43.243 5.15955L53.0693 12.1744L43.243 19.1892V5.15955Z" fill="#F8AF30"/>
<path fill-rule="evenodd" clip-rule="evenodd" d="M53.0693 26.2025L43.243 19.1882L53.0693 12.1733V26.2025Z" fill="#FBE524"/>
<path fill-rule="evenodd" clip-rule="evenodd" d="M43.243 19.1869L53.0693 26.2012L43.243 33.2156V19.1869Z" fill="#FDD028"/>
<path fill-rule="evenodd" clip-rule="evenodd" d="M52.1379 39.5668L43.243 33.2178L53.0693 26.2035V39.4244L52.1379 39.5668Z" fill="#FBE524"/>
<path fill-rule="evenodd" clip-rule="evenodd" d="M43.243 33.2175L52.1379 39.5665L43.3903 40.9039L43.243 40.9179V33.2175Z" fill="#FDD028"/>
<path fill-rule="evenodd" clip-rule="evenodd" d="M43.2431 5.15944L36.6752 0.471461C39.2746 0.112949 41.6236 -0.0201607 43.031 0.00678631L43.2431 0.00244141V5.15944Z" fill="#FDD028"/>
<path fill-rule="evenodd" clip-rule="evenodd" d="M36.6753 0.469971L43.2432 5.15795L33.4166 12.1728V1.02536C34.1872 0.866882 34.9605 0.728708 35.7201 0.610202C36.0411 0.559804 36.3602 0.513405 36.6753 0.469971V0.469971Z" fill="#FBDA25"/>
<path fill-rule="evenodd" clip-rule="evenodd" d="M43.2431 19.1892L33.4166 12.1744L43.2431 5.15955V19.1892Z" fill="#FBE524"/>
<path fill-rule="evenodd" clip-rule="evenodd" d="M33.4166 12.1733L43.2431 19.1882L33.4166 26.2025V12.1733Z" fill="#F6BF2F"/>
<path fill-rule="evenodd" clip-rule="evenodd" d="M43.2431 33.2156L33.4166 26.2012L43.2431 19.1869V33.2156Z" fill="#F8AF30"/>
<path fill-rule="evenodd" clip-rule="evenodd" d="M33.4166 26.2035L43.2431 33.2178L33.4166 40.2318V26.2035Z" fill="#FDD028"/>
<path fill-rule="evenodd" clip-rule="evenodd" d="M35.4132 41.6572L33.4166 40.2315L43.2431 33.2175V40.9179L35.4132 41.6572Z" fill="#FBDA25"/>
<path fill-rule="evenodd" clip-rule="evenodd" d="M33.4166 40.2312L35.4132 41.6569L33.4166 41.8452V40.2312Z" fill="#F8AF30"/>
<path fill-rule="evenodd" clip-rule="evenodd" d="M33.4166 12.1742L23.9436 5.41165L23.9568 5.33206C24.3345 4.83106 24.8393 4.37281 25.4423 3.95383C26.1364 3.47126 26.9612 3.04098 27.8718 2.65868C28.3002 2.47917 28.7469 2.3099 29.2088 2.1509C29.6246 2.0077 30.0523 1.87303 30.4884 1.746C31.4366 1.4697 32.4247 1.23093 33.4166 1.02673V12.1742V12.1742Z" fill="#F8AF30"/>
<path fill-rule="evenodd" clip-rule="evenodd" d="M23.9436 5.41235L33.4166 12.1749L23.7328 19.0874C23.7061 18.8102 23.6819 18.5362 23.6594 18.2646C23.6334 17.953 23.6107 17.6452 23.59 17.3416V8.68509C23.72 6.87555 23.8947 5.71507 23.9436 5.41235Z" fill="#FBDA25"/>
<path fill-rule="evenodd" clip-rule="evenodd" d="M33.4166 26.2025L23.7541 19.3053L23.7328 19.0858L33.4166 12.1733V26.2025Z" fill="#FDD028"/>
<path fill-rule="evenodd" clip-rule="evenodd" d="M23.754 19.3046L33.4165 26.2018L26.1844 31.3638C25.3082 28.5651 24.6946 25.8365 24.2732 23.2637C24.0494 21.8958 23.8798 20.5716 23.754 19.3046V19.3046Z" fill="#F8AF30"/>
<path fill-rule="evenodd" clip-rule="evenodd" d="M33.4166 40.2318L28.0725 36.4172C27.6053 35.3673 27.1576 34.2431 26.7364 33.0338C26.5419 32.4753 26.3582 31.919 26.1845 31.3655L33.4166 26.2035V40.2318V40.2318Z" fill="#FBDA25"/>
<path fill-rule="evenodd" clip-rule="evenodd" d="M28.0725 36.4152L33.4166 40.2297L30.8114 42.0897L23.59 42.7714V41.3923L26.3516 40.9702C25.4096 40.4331 24.4936 39.9566 23.59 39.457V36.6225C25.7999 38.415 27.9186 39.7454 29.2819 40.5222L30.115 40.3952C30.0636 40.3074 30.0127 40.2195 29.9613 40.1308C29.3096 38.9994 28.675 37.7692 28.0725 36.4152L28.0725 36.4152Z" fill="#FBE524"/>
<path fill-rule="evenodd" clip-rule="evenodd" d="M30.8115 42.0911L33.4167 40.2312V41.8452L30.8115 42.0911Z" fill="#F6BF2F"/>
<path fill-rule="evenodd" clip-rule="evenodd" d="M72.7223 12.1727L67.9691 8.77975L68.1005 8.76568C69.9701 8.59017 71.5424 9.5847 72.7223 11.2681V12.1727V12.1727Z" fill="#FBE524"/>
<path fill-rule="evenodd" clip-rule="evenodd" d="M18.5167 8.77975L13.7637 12.1727V11.2681C14.9434 9.5847 16.5157 8.59017 18.3853 8.76568L18.5167 8.77975V8.77975Z" fill="#FDD028"/>
<path fill-rule="evenodd" clip-rule="evenodd" d="M22.486 18.4007L19.9102 16.5616C19.8397 15.614 20.2827 14.6172 20.9414 14.4174C21.9222 14.1199 22.377 14.8424 22.377 14.8424C21.9222 11.5002 18.6814 10.266 16.7161 11.5283C16.1111 11.9171 15.5884 12.4751 15.1595 13.1704L13.7637 12.1738L18.5167 8.78076C21.8838 9.15768 23.1085 11.6639 23.4472 13.9211C23.4163 11.8537 23.4899 10.0768 23.59 8.68396V17.3405C23.5734 17.0949 23.5584 16.8523 23.5445 16.6124C23.5247 16.7361 23.4994 16.8555 23.468 16.9696C23.4296 17.1081 23.3831 17.2395 23.3272 17.3619C23.314 17.4041 23.3007 17.4425 23.2878 17.4766C23.1141 17.928 22.8276 18.237 22.486 18.4007V18.4007Z" fill="#F6BF2F"/>
<path fill-rule="evenodd" clip-rule="evenodd" d="M13.7637 12.1733L15.1595 13.1699C13.5398 15.7969 13.271 20.3913 15.0411 25.2907L13.7637 26.2025V12.1733V12.1733ZM19.9102 16.5612L22.4861 18.4003C21.8632 18.6983 21.057 18.5112 20.4162 17.8159C20.1018 17.4748 19.9447 17.0238 19.9102 16.5612Z" fill="#FBDA25"/>
<path fill-rule="evenodd" clip-rule="evenodd" d="M16.1878 27.9337L13.7637 26.2034L15.0411 25.2916C15.357 26.1659 15.7382 27.0497 16.1878 27.9337H16.1878Z" fill="#F6BF2F"/>
<path fill-rule="evenodd" clip-rule="evenodd" d="M13.7637 26.2035L16.1878 27.9338C16.2685 28.0928 16.3506 28.2518 16.4361 28.4108C17.7236 30.8102 19.5382 32.9426 21.446 34.7483L19.1375 36.396C18.4915 35.8149 17.8402 35.1495 17.1777 34.3684C16.0374 33.0227 14.8006 31.3754 13.7637 29.463V26.2035V26.2035Z" fill="#F8AF30"/>
<path fill-rule="evenodd" clip-rule="evenodd" d="M18.0553 43.2948L16.8379 42.4252L23.5899 41.3932V42.7723L18.0553 43.2948V43.2948ZM19.1374 36.3948L21.4459 34.7471C22.1552 35.4185 22.877 36.0448 23.5899 36.6233V39.4578C22.0928 38.6299 20.6296 37.7372 19.1374 36.3948L19.1374 36.3948Z" fill="#FDD028"/>
<path fill-rule="evenodd" clip-rule="evenodd" d="M16.838 42.425L18.0554 43.2946L13.7637 43.6997V42.8953L16.838 42.425Z" fill="#F8AF30"/>
<path fill-rule="evenodd" clip-rule="evenodd" d="M13.7636 12.1736L13.3647 11.8888C13.4923 11.6731 13.6252 11.4663 13.7636 11.2689V12.1736V12.1736Z" fill="#FBE524"/>
<path fill-rule="evenodd" clip-rule="evenodd" d="M13.3648 11.8872L13.7637 12.172L12.8811 12.8021C13.0318 12.4824 13.1935 12.177 13.3648 11.8872V11.8872Z" fill="#FDD028"/>
<path fill-rule="evenodd" clip-rule="evenodd" d="M13.7636 26.2025L11.9348 24.8971C11.7156 24.0545 11.5532 23.1783 11.4626 22.272C11.1235 18.8723 11.6622 15.3851 12.8811 12.8035L13.7636 12.1733V26.2025H13.7636Z" fill="#FDD028"/>
<path fill-rule="evenodd" clip-rule="evenodd" d="M11.9348 24.8954L13.7637 26.2008L12.6236 27.0146C12.3579 26.3338 12.125 25.627 11.9348 24.8954Z" fill="#FDD028"/>
<path fill-rule="evenodd" clip-rule="evenodd" d="M12.6236 27.0173L13.7636 26.2035V29.463C13.3444 28.6901 12.958 27.8742 12.6236 27.0173V27.0173Z" fill="#FBE524"/>
<path fill-rule="evenodd" clip-rule="evenodd" d="M9.01442 43.6205L8.16396 44.2275L3.93753 44.6265V44.3962L9.01442 43.6205Z" fill="#FBDA25"/>
<path fill-rule="evenodd" clip-rule="evenodd" d="M8.16388 44.2305L9.01435 43.6235L13.7635 42.8975V43.7019L8.16388 44.2305Z" fill="#F8AF30"/>
<path fill-rule="evenodd" clip-rule="evenodd" d="M0.698112 44.933L0.651001 44.8993L3.93757 44.3971V44.6273L0.698112 44.933Z" fill="#FDD028"/>
<path fill-rule="evenodd" clip-rule="evenodd" d="M0.65096 44.9004L0.698071 44.9341L0 45.0001L0.65096 44.9004Z" fill="#F8AF30"/>
</svg>
