<svg width="32" height="18" viewBox="0 0 32 18" fill="none" xmlns="http://www.w3.org/2000/svg">
<path fill-rule="evenodd" clip-rule="evenodd" d="M5.94168 17.9624C5.91317 17.8872 5.88492 17.8119 5.8592 17.7393C5.83349 17.6666 5.80777 17.5939 5.77934 17.5187H4.971L4.80884 17.9624H4.54871C4.61818 17.7794 4.68258 17.609 4.74187 17.451C4.80102 17.2956 4.86028 17.1478 4.91946 17.0074C4.97618 16.8671 5.03279 16.7317 5.08941 16.6039C5.14609 16.4761 5.20531 16.3508 5.26703 16.2253H5.4962C5.55796 16.3508 5.61711 16.4761 5.67386 16.6039C5.73051 16.7317 5.78709 16.8671 5.84628 17.0074C5.90303 17.1478 5.96218 17.2956 6.02137 17.451C6.08059 17.609 6.14488 17.7794 6.21446 17.9624H5.94168V17.9624ZM5.70733 17.3182C5.65325 17.1728 5.59918 17.0324 5.54506 16.8946C5.49106 16.7593 5.43441 16.6289 5.37519 16.5037C5.31593 16.6289 5.25925 16.7593 5.20531 16.8946C5.15113 17.0324 5.09713 17.1728 5.04312 17.3182H5.70733V17.3182ZM7.62236 17.1077H7.87225V17.9198C7.85153 17.9273 7.82324 17.9348 7.7846 17.9423C7.74609 17.9499 7.69966 17.9599 7.65069 17.9674C7.59926 17.9749 7.54268 17.9824 7.48353 17.99C7.42416 17.995 7.36241 17.9975 7.30069 17.9975C7.1745 17.9975 7.06116 17.9774 6.95819 17.9373C6.85525 17.8972 6.7677 17.8396 6.69298 17.7619C6.61843 17.6841 6.56168 17.5914 6.52307 17.4786C6.48196 17.3658 6.46124 17.238 6.46124 17.0927C6.46124 16.9472 6.48439 16.8169 6.53082 16.7041C6.57464 16.5913 6.6364 16.4986 6.71369 16.4208C6.79081 16.3432 6.88103 16.2856 6.98647 16.2454C7.08959 16.2053 7.20024 16.1853 7.31858 16.1853C7.39848 16.1853 7.47056 16.1902 7.53496 16.2003C7.59672 16.2103 7.65069 16.2228 7.69455 16.2354C7.73834 16.248 7.77695 16.263 7.80528 16.2755C7.83353 16.288 7.85153 16.2981 7.86185 16.3056L7.78209 16.5086C7.73313 16.4761 7.66626 16.4509 7.58379 16.4284C7.50146 16.4084 7.41645 16.3983 7.33144 16.3983C7.24139 16.3983 7.15903 16.4134 7.08441 16.446C7.00976 16.4785 6.94536 16.5236 6.89385 16.5838C6.83981 16.6439 6.79856 16.7167 6.77031 16.8019C6.74202 16.8896 6.72648 16.9849 6.72648 17.0927C6.72648 17.1953 6.73941 17.2907 6.76513 17.3759C6.78817 17.461 6.82685 17.5337 6.87846 17.5939C6.92729 17.6566 6.99165 17.7042 7.06634 17.7368C7.14099 17.7694 7.22854 17.7869 7.32894 17.7869C7.40106 17.7869 7.46281 17.7819 7.51439 17.7744C7.56321 17.7669 7.59926 17.7619 7.62237 17.7543V17.1077L7.62236 17.1077ZM8.38945 17.9624V16.2253H9.47846V16.4334H8.63912V16.9498H9.38577V17.1528H8.63912V17.7543H9.54278V17.9624H8.38945V17.9624ZM8.93272 15.6439L9.28276 16.0023L9.18235 16.1126L8.93272 15.892L8.6829 16.1126L8.5825 16.0023L8.93272 15.6439H8.93272ZM11.2083 17.9624C11.1696 17.8997 11.1285 17.8321 11.0796 17.7543C11.0306 17.6767 10.9765 17.5964 10.9199 17.5138C10.8633 17.431 10.8041 17.3483 10.7449 17.263C10.6831 17.1778 10.6213 17.0951 10.562 17.0149C10.5029 16.9372 10.4436 16.862 10.3871 16.7919C10.3303 16.7217 10.2789 16.659 10.2299 16.6064V17.9624H9.98544V16.2253H10.1837C10.2634 16.3081 10.3511 16.4058 10.4436 16.5161C10.5337 16.6289 10.6264 16.7417 10.7166 16.8595C10.8067 16.9773 10.8916 17.0951 10.9714 17.2079C11.0513 17.3207 11.1182 17.4234 11.1722 17.5112V16.2253H11.4169V17.9624H11.2083H11.2083ZM12.7529 18C12.6266 18 12.5134 17.9799 12.4104 17.9398C12.3074 17.8997 12.2198 17.842 12.1452 17.7644C12.0705 17.6866 12.0139 17.5914 11.9753 17.4786C11.9341 17.3658 11.9135 17.238 11.9135 17.0927C11.9135 16.9472 11.9367 16.8169 11.983 16.7041C12.0268 16.5913 12.0885 16.4986 12.1658 16.4208C12.243 16.3432 12.3332 16.2856 12.4361 16.2454C12.5391 16.2053 12.6498 16.1853 12.7657 16.1853C12.8403 16.1853 12.9073 16.1902 12.9665 16.2003C13.0257 16.2103 13.0772 16.2228 13.1209 16.2354C13.1647 16.248 13.1982 16.263 13.2265 16.2755C13.2548 16.288 13.2728 16.2981 13.2832 16.3056L13.2111 16.5062C13.1956 16.496 13.1725 16.486 13.1442 16.4735C13.1157 16.461 13.0823 16.4509 13.0464 16.4384C13.0077 16.4259 12.969 16.4159 12.9253 16.4084C12.8816 16.4008 12.8352 16.3983 12.7914 16.3983C12.6962 16.3983 12.6112 16.4134 12.5365 16.446C12.4619 16.4785 12.3975 16.5236 12.3435 16.5838C12.2893 16.6439 12.2507 16.7167 12.2224 16.8019C12.1941 16.8896 12.1787 16.9849 12.1787 17.0927C12.1787 17.1953 12.1915 17.2907 12.2173 17.3759C12.2405 17.461 12.2791 17.5337 12.3279 17.5939C12.3769 17.6566 12.4414 17.7042 12.516 17.7368C12.5905 17.7694 12.6756 17.7869 12.776 17.7869C12.8918 17.7869 12.9871 17.7744 13.0617 17.7518C13.1364 17.7293 13.193 17.7068 13.2317 17.6891L13.296 17.8897C13.2832 17.8972 13.2626 17.9072 13.2317 17.9198C13.2008 17.9323 13.1621 17.9448 13.1157 17.9574C13.0695 17.9699 13.0154 17.9799 12.9535 17.9874C12.8918 17.995 12.8248 18 12.7527 18H12.7529L12.7529 18ZM13.7076 16.2253H13.9574V17.9624H13.7076V16.2253ZM15.7182 17.9624C15.6898 17.8872 15.6615 17.8119 15.6358 17.7393C15.6101 17.6666 15.5842 17.5939 15.5559 17.5187H14.7475L14.5853 17.9624H14.3252C14.3948 17.7794 14.4591 17.609 14.5183 17.451C14.5776 17.2956 14.6368 17.1478 14.6961 17.0074C14.7526 16.8671 14.8093 16.7317 14.8659 16.6039C14.9226 16.4761 14.9817 16.3508 15.0436 16.2253H15.2727C15.3346 16.3508 15.3937 16.4761 15.4503 16.6039C15.5071 16.7317 15.5636 16.8671 15.6228 17.0074C15.6796 17.1478 15.7387 17.2956 15.798 17.451C15.8571 17.609 15.9215 17.7794 15.991 17.9624H15.7182V17.9624ZM15.4838 17.3182C15.4298 17.1728 15.3758 17.0324 15.3216 16.8946C15.2676 16.7593 15.2109 16.6289 15.1517 16.5037C15.0925 16.6289 15.0359 16.7593 14.9817 16.8946C14.9277 17.0324 14.8738 17.1728 14.8196 17.3182H15.4838ZM19.1387 17.0927C19.1387 17.243 19.1154 17.3734 19.0665 17.4836C19.0176 17.5964 18.9507 17.6866 18.8632 17.7593C18.7757 17.8321 18.6701 17.8872 18.5491 17.9222C18.4281 17.9599 18.2942 17.9774 18.1474 17.9774C18.0754 17.9774 17.9956 17.9749 17.9107 17.9699C17.8231 17.9624 17.7432 17.9524 17.6738 17.9348V16.2505C17.7432 16.2328 17.8231 16.2228 17.9107 16.2154C17.9956 16.2104 18.0754 16.2078 18.1474 16.2078C18.2942 16.2078 18.4281 16.2253 18.5491 16.2605C18.6701 16.2981 18.7757 16.3508 18.8632 16.4233C18.9507 16.496 19.0176 16.5888 19.0665 16.6991C19.1154 16.8119 19.1387 16.9422 19.1387 17.0927ZM18.168 17.7644C18.4049 17.7644 18.5825 17.7042 18.6984 17.5864C18.8142 17.4686 18.8736 17.3056 18.8736 17.0927C18.8736 16.8796 18.8142 16.7141 18.6984 16.5963C18.5825 16.4785 18.4049 16.4208 18.168 16.4208C18.0985 16.4208 18.0444 16.4208 18.0059 16.4233C17.9672 16.4259 17.939 16.4259 17.9234 16.4284V17.7568C17.939 17.7593 17.9672 17.7593 18.0059 17.7619C18.0445 17.7644 18.0985 17.7644 18.168 17.7644V17.7644ZM19.6352 16.2253H19.8851V17.9624H19.6352V16.2253ZM21.5427 17.1077H21.7925V17.9198C21.7719 17.9273 21.7435 17.9348 21.705 17.9423C21.6663 17.9499 21.62 17.9599 21.5711 17.9674C21.5196 17.9749 21.463 17.9824 21.4038 17.99C21.3446 17.995 21.2827 17.9975 21.2209 17.9975C21.0948 17.9975 20.9815 17.9774 20.8784 17.9373C20.7756 17.8972 20.688 17.8396 20.6133 17.7619C20.5387 17.6841 20.482 17.5914 20.4434 17.4786C20.4022 17.3658 20.3816 17.238 20.3816 17.0927C20.3816 16.9472 20.4048 16.8169 20.4511 16.7041C20.4949 16.5913 20.5567 16.4986 20.634 16.4208C20.7111 16.3432 20.8013 16.2856 20.9069 16.2454C21.0099 16.2053 21.1205 16.1853 21.239 16.1853C21.3187 16.1853 21.3908 16.1902 21.4552 16.2003C21.517 16.2103 21.5711 16.2228 21.6148 16.2354C21.6586 16.248 21.6973 16.263 21.7255 16.2755C21.7539 16.288 21.7719 16.2981 21.7822 16.3056L21.7024 16.5086C21.6534 16.4761 21.5865 16.4509 21.5042 16.4284C21.4217 16.4084 21.3368 16.3983 21.2518 16.3983C21.1617 16.3983 21.0793 16.4134 21.0047 16.446C20.93 16.4785 20.8656 16.5236 20.814 16.5838C20.7601 16.6439 20.7188 16.7167 20.6905 16.8019C20.6623 16.8896 20.6468 16.9849 20.6468 17.0927C20.6469 17.1953 20.6596 17.2907 20.6854 17.3759C20.7086 17.461 20.7471 17.5337 20.7987 17.5939C20.8476 17.6566 20.9119 17.7042 20.9866 17.7368C21.0613 17.7694 21.1488 17.7869 21.2492 17.7869C21.3213 17.7869 21.3831 17.7819 21.4346 17.7744C21.4835 17.7669 21.5196 17.7619 21.5427 17.7543V17.1077L21.5427 17.1077ZM22.3097 16.2253H22.5595V17.9624H22.3097V16.2253ZM24.3202 16.2253V16.4359H23.7589V17.9624H23.5092V16.4359H22.9479V16.2253H24.3202ZM25.7358 17.9624C25.7075 17.8872 25.6793 17.8119 25.6535 17.7393C25.6278 17.6666 25.602 17.5939 25.5737 17.5187H24.7652L24.603 17.9624H24.3431C24.4126 17.7794 24.4769 17.609 24.5362 17.451C24.5954 17.2956 24.6546 17.1478 24.7138 17.0074C24.7705 16.8671 24.827 16.7317 24.8837 16.6039C24.9403 16.4761 24.9996 16.3508 25.0613 16.2253H25.2905C25.3523 16.3508 25.4115 16.4761 25.4681 16.6039C25.5248 16.7317 25.5814 16.8671 25.6407 17.0074C25.6972 17.1478 25.7566 17.2956 25.8157 17.451C25.8749 17.609 25.9393 17.7794 26.0088 17.9624H25.7358L25.7358 17.9624ZM25.5017 17.3182C25.4476 17.1728 25.3934 17.0324 25.3393 16.8946C25.2854 16.7593 25.2286 16.6289 25.1694 16.5037C25.1102 16.6289 25.0537 16.7593 24.9995 16.8946C24.9455 17.0324 24.8915 17.1728 24.8373 17.3182H25.5017V17.3182ZM27.4502 17.7518V17.9624H26.3767V16.2253H26.6264V17.7518H27.4502V17.7518Z" fill="white"/>
<path fill-rule="evenodd" clip-rule="evenodd" d="M11.9411 6.51954C12.1783 7.0659 12.4497 7.52412 12.7344 7.92067C12.7471 7.93816 12.7596 7.95551 12.7722 7.97283L12.5673 7.99791C11.833 7.66227 10.2072 6.80264 9.40756 5.60713C8.44281 4.16478 8.64664 2.70288 9.47644 2.27522C9.95985 2.02609 10.757 2.26967 10.8689 2.92931C10.8689 2.92931 10.757 2.7867 10.5157 2.84542C10.2747 2.90414 10.1509 3.31111 10.3865 3.51625C10.6306 3.72868 10.9722 3.70077 11.0929 3.4492C11.0961 3.44247 11.0993 3.43489 11.1026 3.42656C11.1163 3.40242 11.1278 3.37648 11.1372 3.34915C11.1449 3.32661 11.1512 3.30305 11.156 3.27863C11.1636 3.38464 11.1728 3.49327 11.1843 3.60449C11.2164 3.91581 11.2649 4.24665 11.3353 4.59161C11.4594 5.19985 11.6514 5.85215 11.9411 6.51954V6.51954ZM19.6501 7.30201C19.7892 7.06162 19.922 6.80113 20.0453 6.51676C20.3351 5.84937 20.5271 5.19707 20.6512 4.58883C20.7215 4.24387 20.77 3.91314 20.8021 3.60182C20.8218 3.41116 20.8352 3.22784 20.8438 3.05299C20.8453 3.21628 20.8713 3.35192 20.9001 3.42662C20.9033 3.43489 20.9064 3.44247 20.9097 3.44919C21.0303 3.70077 21.3719 3.72868 21.616 3.51624C21.8517 3.31111 21.728 2.90413 21.4868 2.84542C21.2457 2.7867 21.1337 2.92931 21.1337 2.92931C21.2457 2.26966 22.0427 2.02609 22.5261 2.27522C23.3559 2.70288 23.5597 4.16478 22.5951 5.60712C22.1667 6.24743 21.5014 6.79138 20.863 7.21012L19.6501 7.302V7.30201ZM22.0118 7.12315C22.1442 7.0231 22.2775 6.91084 22.4125 6.78295C23.0006 6.2263 23.6925 5.40782 23.8183 4.39574C23.9852 3.05323 23.2877 1.64182 22.1156 1.73017C21.1697 1.80144 20.8941 2.41094 20.8504 2.89272C20.8876 1.77897 20.729 1.04943 20.729 1.04943C20.6639 0.980085 20.5836 0.915054 20.4908 0.853971C20.3572 0.766065 20.1974 0.68653 20.0187 0.614676C19.8082 0.530132 19.5714 0.456086 19.3201 0.391709C18.34 0.140409 17.1382 0.0340549 16.4091 0.00719881C16.2199 0.000236323 16.0625 -0.00144467 15.9492 0.00116201C15.561 -0.00480666 14.8817 0.0289069 14.1509 0.120549C13.7235 0.174157 13.2785 0.247518 12.8641 0.344442C12.7568 0.369515 12.6516 0.396096 12.5493 0.424355C12.4357 0.455737 12.3258 0.489144 12.2204 0.524573C11.9965 0.600027 11.7936 0.684948 11.6228 0.780191C11.4745 0.862884 11.3504 0.953325 11.2574 1.05221C11.2574 1.05221 11.1128 1.71747 11.1321 2.74746C11.0478 2.29625 10.7398 1.79444 9.88699 1.73017C8.71484 1.64181 8.01734 3.05323 8.18422 4.39573C8.31016 5.40782 9.00196 6.2263 9.58998 6.78295C10.3561 7.50823 11.0647 7.72856 11.8465 8.08632L5.36475 8.88134L16.0376 8.07288L26.6378 6.77269L22.0118 7.12314V7.12315Z" fill="#F8AF30"/>
<path fill-rule="evenodd" clip-rule="evenodd" d="M11.9411 6.51954C12.1783 7.0659 12.4497 7.52412 12.7344 7.92067C12.7471 7.93816 12.7596 7.95551 12.7722 7.97283L12.5673 7.99791C11.833 7.66227 10.2072 6.80264 9.40756 5.60713C8.44281 4.16478 8.64664 2.70288 9.47644 2.27522C9.95985 2.02609 10.757 2.26967 10.8689 2.92931C10.8689 2.92931 10.757 2.7867 10.5157 2.84542C10.2747 2.90414 10.1509 3.31111 10.3865 3.51625C10.6306 3.72868 10.9722 3.70077 11.0929 3.4492C11.0961 3.44247 11.0993 3.43489 11.1026 3.42656C11.1163 3.40242 11.1278 3.37648 11.1372 3.34915C11.1449 3.32661 11.1512 3.30305 11.156 3.27863C11.1636 3.38464 11.1728 3.49327 11.1843 3.60449C11.2164 3.91581 11.2649 4.24665 11.3353 4.59161C11.4594 5.19985 11.6514 5.85215 11.9411 6.51954V6.51954ZM19.6501 7.30201C19.7892 7.06162 19.922 6.80113 20.0453 6.51676C20.3351 5.84937 20.5271 5.19707 20.6512 4.58883C20.7215 4.24387 20.77 3.91314 20.8021 3.60182C20.8218 3.41116 20.8352 3.22784 20.8438 3.05299C20.8453 3.21628 20.8713 3.35192 20.9001 3.42662C20.9033 3.43489 20.9064 3.44247 20.9097 3.44919C21.0303 3.70077 21.3719 3.72868 21.616 3.51624C21.8517 3.31111 21.728 2.90413 21.4868 2.84542C21.2457 2.7867 21.1337 2.92931 21.1337 2.92931C21.2457 2.26966 22.0427 2.02609 22.5261 2.27522C23.3559 2.70288 23.5597 4.16478 22.5951 5.60712C22.1667 6.24743 21.5014 6.79138 20.863 7.21012L19.6501 7.302V7.30201ZM22.0118 7.12315C22.1442 7.0231 22.2775 6.91084 22.4125 6.78295C23.0006 6.2263 23.6925 5.40782 23.8183 4.39574C23.9852 3.05323 23.2877 1.64182 22.1156 1.73017C21.1697 1.80144 20.8941 2.41094 20.8504 2.89272C20.8876 1.77897 20.729 1.04943 20.729 1.04943C20.6639 0.980085 20.5836 0.915054 20.4908 0.853971C20.3572 0.766065 20.1974 0.68653 20.0187 0.614676C19.8082 0.530132 19.5714 0.456086 19.3201 0.391709C18.34 0.140409 17.1382 0.0340549 16.4091 0.00719881C16.2199 0.000236323 16.0625 -0.00144467 15.9492 0.00116201C15.561 -0.00480666 14.8817 0.0289069 14.1509 0.120549C13.7235 0.174157 13.2785 0.247518 12.8641 0.344442C12.7568 0.369515 12.6516 0.396096 12.5493 0.424355C12.4357 0.455737 12.3258 0.489144 12.2204 0.524573C11.9965 0.600027 11.7936 0.684948 11.6228 0.780191C11.4745 0.862884 11.3504 0.953325 11.2574 1.05221C11.2574 1.05221 11.1128 1.71747 11.1321 2.74746C11.0478 2.29625 10.7398 1.79444 9.88699 1.73017C8.71484 1.64181 8.01734 3.05323 8.18422 4.39573C8.31016 5.40782 9.00196 6.2263 9.58998 6.78295C10.3561 7.50823 11.0647 7.72856 11.8465 8.08632L5.36475 8.88134L16.0376 8.07288L26.6378 6.77269L22.0118 7.12314V7.12315Z" fill="#FEFEFE"/>
<path fill-rule="evenodd" clip-rule="evenodd" d="M26.1519 6.83228L26.1168 6.81218L26.6377 6.77271L26.1519 6.83228Z" fill="#F6BF2F"/>
<path fill-rule="evenodd" clip-rule="evenodd" d="M26.1169 6.81216L26.152 6.83226L25.6694 6.89149V6.84605L26.1169 6.81216Z" fill="#FDD028"/>
<path fill-rule="evenodd" clip-rule="evenodd" d="M23.3505 2.3464L23.2524 2.40261V2.22406C23.2865 2.26302 23.3191 2.30384 23.3505 2.3464V2.3464Z" fill="#FDD028"/>
<path fill-rule="evenodd" clip-rule="evenodd" d="M23.4693 2.52688L23.2524 2.40262L23.3505 2.34641C23.3926 2.40361 23.4323 2.46387 23.4694 2.52688H23.4693Z" fill="#FBDA25"/>
<path fill-rule="evenodd" clip-rule="evenodd" d="M23.2524 2.40262L23.4693 2.52688C23.7692 3.03651 23.9018 3.72475 23.8183 4.39575C23.7961 4.57472 23.7561 4.74754 23.7021 4.91395L23.2524 5.17149V2.40262V2.40262Z" fill="#FBDA25"/>
<path fill-rule="evenodd" clip-rule="evenodd" d="M23.5328 5.3321L23.2524 5.17148L23.7021 4.91394C23.6554 5.05823 23.5981 5.19772 23.5328 5.3321V5.3321Z" fill="#F8AF30"/>
<path fill-rule="evenodd" clip-rule="evenodd" d="M23.2524 5.17148L23.5328 5.3321C23.4505 5.50111 23.3554 5.66207 23.2524 5.81463V5.17148ZM25.0855 6.89034L24.9238 6.98297L23.2524 7.1879V7.02914L25.0855 6.89034V6.89034Z" fill="#F6BF2F"/>
<path fill-rule="evenodd" clip-rule="evenodd" d="M24.9237 6.98299L25.0854 6.89035L25.6694 6.84607V6.89151L24.9237 6.98299Z" fill="#FBDA25"/>
<path fill-rule="evenodd" clip-rule="evenodd" d="M22.0833 1.73294L23.2524 2.4026L22.909 2.5993C22.8035 2.46208 22.6749 2.35195 22.5261 2.27522C22.0427 2.02609 21.2456 2.26967 21.1337 2.92931C21.1337 2.92931 21.2456 2.7867 21.4868 2.84542C21.6489 2.88486 21.7579 3.08159 21.7404 3.26862L21.1068 3.63152C21.0228 3.59921 20.9524 3.5383 20.9097 3.44919C20.9064 3.44247 20.9033 3.43489 20.9 3.42662C20.8712 3.35192 20.8452 3.21628 20.8438 3.05299C20.8414 3.10255 20.8385 3.15276 20.8353 3.20366V1.91863C20.8534 2.19191 20.8628 2.52089 20.8504 2.89271C20.8936 2.41649 21.1635 1.81556 22.0833 1.73294V1.73294Z" fill="#FBDA25"/>
<path fill-rule="evenodd" clip-rule="evenodd" d="M23.2524 5.17149L22.9381 4.99153C23.3735 4.02455 23.3073 3.11786 22.9089 2.59931L23.2524 2.40262V5.17149V5.17149ZM21.1068 3.63153L21.7403 3.26863C21.732 3.36 21.6932 3.44893 21.6159 3.51626C21.4583 3.65348 21.26 3.69035 21.1068 3.63153V3.63153Z" fill="#FBDA25"/>
<path fill-rule="evenodd" clip-rule="evenodd" d="M22.9382 4.99152L23.2525 5.17148L22.6562 5.51298C22.7669 5.33851 22.8606 5.16407 22.9382 4.99152V4.99152Z" fill="#F8AF30"/>
<path fill-rule="evenodd" clip-rule="evenodd" d="M22.1707 7.32059L21.3627 6.85792C21.832 6.50143 22.2783 6.08067 22.5951 5.60713C22.6161 5.57574 22.6363 5.54436 22.6562 5.51298L23.2524 5.17148V5.81463C22.9973 6.19207 22.6932 6.51735 22.4125 6.78295C22.2775 6.91085 22.1442 7.0231 22.0118 7.12315L23.2524 7.02914V7.1879L22.1707 7.3206L22.1707 7.32059Z" fill="#F8AF30"/>
<path fill-rule="evenodd" clip-rule="evenodd" d="M21.3626 6.85794L22.1707 7.32061L20.8353 7.48442V7.21224L20.8629 7.21014C21.0293 7.10111 21.1975 6.98347 21.3626 6.85794L21.3626 6.85794Z" fill="#FDD028"/>
<path fill-rule="evenodd" clip-rule="evenodd" d="M20.7344 1.07592L18.4183 2.40262V0.206482C18.7263 0.256932 19.0327 0.318018 19.3201 0.391721C19.5714 0.456098 19.8082 0.530147 20.0187 0.614688C20.1974 0.686542 20.3572 0.766079 20.4908 0.853982C20.5836 0.915066 20.6639 0.980094 20.729 1.04944L20.7344 1.07592V1.07592Z" fill="#FBE524"/>
<path fill-rule="evenodd" clip-rule="evenodd" d="M20.7848 3.75814L18.4183 2.40259L20.7344 1.0759C20.7515 1.16343 20.8053 1.46404 20.8353 1.91862V3.20365C20.8271 3.3323 20.8162 3.46517 20.8021 3.60181C20.7968 3.65339 20.7911 3.70546 20.7848 3.75814V3.75814Z" fill="#FBE524"/>
<path fill-rule="evenodd" clip-rule="evenodd" d="M18.4183 2.40262L20.7848 3.75816L20.7772 3.82041L18.4183 5.17149V2.40262Z" fill="#FDD028"/>
<path fill-rule="evenodd" clip-rule="evenodd" d="M20.183 6.18223L18.4183 5.17149L20.7772 3.8204C20.7465 4.06652 20.7053 4.32348 20.6512 4.58884C20.5479 5.095 20.3975 5.63173 20.183 6.18223Z" fill="#FBE524"/>
<path fill-rule="evenodd" clip-rule="evenodd" d="M18.4183 5.17148L20.183 6.18223C20.1398 6.29322 20.0939 6.40475 20.0453 6.51677C19.9388 6.76227 19.8252 6.98987 19.7067 7.2022L18.7724 7.73742L18.4183 7.78084V5.17148L18.4183 5.17148Z" fill="#FDD028"/>
<path fill-rule="evenodd" clip-rule="evenodd" d="M18.7723 7.73742L19.7067 7.20221C19.688 7.23579 19.6691 7.26913 19.6501 7.30202L20.8353 7.21222V7.48441L18.7723 7.73742V7.73742Z" fill="#F6BF2F"/>
<path fill-rule="evenodd" clip-rule="evenodd" d="M17.6098 0.0969262L16.0013 1.01812V0.000308897C16.1089 -0.000855304 16.2474 0.00123458 16.4091 0.00720324C16.7354 0.0192428 17.1564 0.047195 17.6098 0.0969262V0.0969262Z" fill="#FBE524"/>
<path fill-rule="evenodd" clip-rule="evenodd" d="M18.4183 2.40261L16.0013 1.01812L17.6098 0.0969238C17.8724 0.125663 18.146 0.161849 18.4183 0.20647V2.40261Z" fill="#F6BF2F"/>
<path fill-rule="evenodd" clip-rule="evenodd" d="M16.0013 1.01813L18.4183 2.40261L16.0013 3.7871V1.01813Z" fill="#F8AF30"/>
<path fill-rule="evenodd" clip-rule="evenodd" d="M18.4183 5.17149L16.0013 3.78711L18.4183 2.40262V5.17149Z" fill="#FBE524"/>
<path fill-rule="evenodd" clip-rule="evenodd" d="M16.0013 3.78711L18.4183 5.1715L16.0013 6.55588V3.78711Z" fill="#FDD028"/>
<path fill-rule="evenodd" clip-rule="evenodd" d="M18.1892 7.80892L16.0013 6.55586L18.4183 5.17148V7.78084L18.1892 7.80892Z" fill="#FBE524"/>
<path fill-rule="evenodd" clip-rule="evenodd" d="M16.0013 6.55588L18.1892 7.80894L16.0376 8.0729L16.0013 8.07567V6.55588Z" fill="#FDD028"/>
<path fill-rule="evenodd" clip-rule="evenodd" d="M16.0013 1.01812L14.3857 0.0928734C15.0251 0.0221155 15.6029 -0.0041557 15.9491 0.00116271L16.0013 0.000305176V1.01812Z" fill="#FDD028"/>
<path fill-rule="evenodd" clip-rule="evenodd" d="M14.3858 0.092865L16.0013 1.01811L13.5842 2.4026V0.202479C13.7738 0.171202 13.964 0.143931 14.1508 0.120542C14.2298 0.110595 14.3083 0.101437 14.3858 0.092865V0.092865Z" fill="#FBDA25"/>
<path fill-rule="evenodd" clip-rule="evenodd" d="M16.0013 3.7871L13.5842 2.40261L16.0013 1.01813V3.7871Z" fill="#FBE524"/>
<path fill-rule="evenodd" clip-rule="evenodd" d="M13.5842 2.40262L16.0013 3.78711L13.5842 5.17149V2.40262Z" fill="#F6BF2F"/>
<path fill-rule="evenodd" clip-rule="evenodd" d="M16.0013 6.55588L13.5842 5.1715L16.0013 3.78711V6.55588Z" fill="#F8AF30"/>
<path fill-rule="evenodd" clip-rule="evenodd" d="M13.5842 5.17148L16.0013 6.55586L13.5842 7.94018V5.17148Z" fill="#FDD028"/>
<path fill-rule="evenodd" clip-rule="evenodd" d="M14.0753 8.22157L13.5842 7.9402L16.0013 6.55588V8.07567L14.0753 8.22157Z" fill="#FBDA25"/>
<path fill-rule="evenodd" clip-rule="evenodd" d="M13.5842 7.94019L14.0753 8.22156L13.5842 8.25874V7.94019Z" fill="#F8AF30"/>
<path fill-rule="evenodd" clip-rule="evenodd" d="M13.5843 2.4026L11.2542 1.06791L11.2574 1.05221C11.3503 0.953326 11.4745 0.862884 11.6228 0.780192C11.7935 0.684949 11.9964 0.600028 12.2204 0.524573C12.3258 0.489145 12.4356 0.455738 12.5493 0.424355C12.6515 0.396094 12.7567 0.369513 12.864 0.344443C13.0972 0.28991 13.3403 0.242785 13.5843 0.202484V2.4026V2.4026Z" fill="#F8AF30"/>
<path fill-rule="evenodd" clip-rule="evenodd" d="M11.2542 1.06793L13.5843 2.40262L11.2024 3.76691C11.1958 3.71221 11.1899 3.65812 11.1843 3.60451C11.1779 3.54301 11.1723 3.48227 11.1672 3.42235V1.71386C11.1992 1.35672 11.2422 1.12768 11.2542 1.06793Z" fill="#FBDA25"/>
<path fill-rule="evenodd" clip-rule="evenodd" d="M13.5842 5.17149L11.2075 3.81022L11.2023 3.76691L13.5842 2.40262V5.17149Z" fill="#FDD028"/>
<path fill-rule="evenodd" clip-rule="evenodd" d="M11.2075 3.81021L13.5842 5.17148L11.8053 6.19029C11.5898 5.63793 11.4389 5.09939 11.3352 4.59162C11.2802 4.32163 11.2384 4.06028 11.2075 3.81021V3.81021Z" fill="#F8AF30"/>
<path fill-rule="evenodd" clip-rule="evenodd" d="M13.5843 7.94018L12.2698 7.18732C12.1549 6.98009 12.0448 6.75822 11.9412 6.51954C11.8933 6.40931 11.8482 6.29952 11.8054 6.19029L13.5843 5.17148V7.94018V7.94018Z" fill="#FBDA25"/>
<path fill-rule="evenodd" clip-rule="evenodd" d="M12.2698 7.18732L13.5843 7.94018L12.9435 8.30727L11.1672 8.44182V8.16963L11.8465 8.08632C11.6148 7.98031 11.3895 7.88627 11.1672 7.78766V7.22823C11.7108 7.58201 12.232 7.84459 12.5673 7.9979L12.7722 7.97283C12.7596 7.95551 12.7471 7.93816 12.7344 7.92066C12.5741 7.69735 12.418 7.45456 12.2698 7.18732L12.2698 7.18732Z" fill="#FBE524"/>
<path fill-rule="evenodd" clip-rule="evenodd" d="M12.9435 8.30727L13.5843 7.94019V8.25874L12.9435 8.30727Z" fill="#F6BF2F"/>
<path fill-rule="evenodd" clip-rule="evenodd" d="M23.2524 2.4026L22.0833 1.73294L22.1156 1.73016C22.5754 1.69553 22.9622 1.89181 23.2524 2.22405V2.4026V2.4026Z" fill="#FBE524"/>
<path fill-rule="evenodd" clip-rule="evenodd" d="M9.91936 1.73294L8.75024 2.4026V2.22405C9.04043 1.89181 9.42717 1.69553 9.88702 1.73016L9.91936 1.73294V1.73294Z" fill="#FDD028"/>
<path fill-rule="evenodd" clip-rule="evenodd" d="M10.8957 3.63158L10.2621 3.26861C10.2448 3.08159 10.3537 2.88486 10.5158 2.84541C10.757 2.7867 10.8689 2.92931 10.8689 2.92931C10.757 2.26966 9.95988 2.02608 9.47646 2.27522C9.32765 2.35194 9.19907 2.46207 9.09359 2.5993L8.75024 2.4026L9.91936 1.73294C10.7476 1.80733 11.0488 2.30197 11.1321 2.74746C11.1245 2.33943 11.1426 1.98873 11.1673 1.71384V3.42233C11.1632 3.37387 11.1595 3.32599 11.1561 3.27863C11.1512 3.30305 11.145 3.32661 11.1372 3.34914C11.1278 3.37648 11.1164 3.40241 11.1026 3.42656C11.0994 3.43489 11.0961 3.44247 11.0929 3.44919C11.0502 3.5383 10.9797 3.59928 10.8957 3.63158V3.63158Z" fill="#F6BF2F"/>
<path fill-rule="evenodd" clip-rule="evenodd" d="M8.75024 2.40262L9.09359 2.59931C8.69518 3.11779 8.62906 4.02455 9.06446 4.99153L8.75024 5.17149V2.40262V2.40262ZM10.2621 3.26863L10.8957 3.6316C10.7425 3.69042 10.5442 3.65349 10.3866 3.51626C10.3092 3.44893 10.2706 3.35993 10.2621 3.26863Z" fill="#FBDA25"/>
<path fill-rule="evenodd" clip-rule="evenodd" d="M9.3465 5.51298L8.75024 5.17148L9.06446 4.99152C9.14217 5.16407 9.23591 5.33851 9.3465 5.51298H9.3465Z" fill="#F6BF2F"/>
<path fill-rule="evenodd" clip-rule="evenodd" d="M8.75024 5.17148L9.3465 5.51298C9.36637 5.54437 9.38656 5.57575 9.40759 5.60713C9.72427 6.08068 10.1706 6.50154 10.6399 6.85792L10.0721 7.18313C9.91317 7.06844 9.75295 6.93712 9.59001 6.78295C9.30951 6.51735 9.00531 6.19224 8.75024 5.8148V5.17148V5.17148Z" fill="#F8AF30"/>
<path fill-rule="evenodd" clip-rule="evenodd" d="M9.8058 8.54497L9.50635 8.37334L11.1672 8.16965V8.44184L9.8058 8.54497V8.54497ZM10.072 7.18315L10.6398 6.85794C10.8143 6.99047 10.9918 7.11408 11.1672 7.22825V7.78768C10.7989 7.62428 10.439 7.4481 10.072 7.18315L10.072 7.18315Z" fill="#FDD028"/>
<path fill-rule="evenodd" clip-rule="evenodd" d="M9.50644 8.37332L9.80589 8.54494L8.75024 8.62489V8.46613L9.50644 8.37332Z" fill="#F8AF30"/>
<path fill-rule="evenodd" clip-rule="evenodd" d="M8.75021 2.40261L8.6521 2.3464C8.68349 2.30384 8.71618 2.26302 8.75021 2.22406V2.40261V2.40261Z" fill="#FBE524"/>
<path fill-rule="evenodd" clip-rule="evenodd" d="M8.65205 2.34641L8.75017 2.40262L8.53308 2.52698C8.57014 2.46387 8.60992 2.40361 8.65205 2.34641V2.34641Z" fill="#FDD028"/>
<path fill-rule="evenodd" clip-rule="evenodd" d="M8.75018 5.17149L8.30034 4.91385C8.24644 4.74754 8.20649 4.57461 8.18419 4.39575C8.1008 3.72475 8.2333 3.0365 8.5331 2.52698L8.75018 2.40262V5.17149H8.75018Z" fill="#FDD028"/>
<path fill-rule="evenodd" clip-rule="evenodd" d="M8.30042 4.91385L8.75026 5.17149L8.46983 5.33211C8.40448 5.19773 8.3472 5.05824 8.30042 4.91385Z" fill="#FDD028"/>
<path fill-rule="evenodd" clip-rule="evenodd" d="M8.46973 5.3321L8.75015 5.17148V5.8148C8.64704 5.66224 8.55199 5.50122 8.46973 5.3321V5.3321Z" fill="#FBE524"/>
<path fill-rule="evenodd" clip-rule="evenodd" d="M7.58203 8.60944L7.37284 8.72924L6.33325 8.80799V8.76254L7.58203 8.60944Z" fill="#FBDA25"/>
<path fill-rule="evenodd" clip-rule="evenodd" d="M7.3728 8.72925L7.58199 8.60945L8.75016 8.46616V8.62492L7.3728 8.72925Z" fill="#F8AF30"/>
<path fill-rule="evenodd" clip-rule="evenodd" d="M5.53637 8.86831L5.52478 8.86166L6.33319 8.76254V8.80799L5.53637 8.86831Z" fill="#FDD028"/>
<path fill-rule="evenodd" clip-rule="evenodd" d="M5.52486 8.86166L5.53645 8.86832L5.36475 8.88135L5.52486 8.86166Z" fill="#F8AF30"/>
<path fill-rule="evenodd" clip-rule="evenodd" d="M1.59797 9.63321C2.38929 9.63321 3.00383 9.76783 3.42644 10.0371C3.84898 10.3138 4.06409 10.7551 4.06409 11.3759C4.06409 11.9967 3.84898 12.4454 3.41876 12.7221C2.9885 12.9989 2.37389 13.141 1.57493 13.141H1.19854V14.8762H0V9.76783C0.261295 9.71549 0.537777 9.68555 0.829755 9.66315C1.1217 9.64069 1.37518 9.63321 1.59797 9.63321V9.63321ZM1.6748 10.6279C1.59025 10.6279 1.50577 10.6279 1.42122 10.6355C1.33678 10.6429 1.25998 10.6429 1.19847 10.6504L1.19854 12.1462H1.57493C1.98979 12.1462 2.30477 12.0939 2.51213 11.9817C2.71967 11.8695 2.82715 11.6676 2.82715 11.3685C2.82715 11.2263 2.80411 11.1066 2.75032 11.0094C2.69656 10.9122 2.61972 10.8374 2.51981 10.7776C2.42004 10.7252 2.29706 10.6803 2.15107 10.6579C2.00507 10.6355 1.8514 10.6279 1.6748 10.6279L1.6748 10.6279Z" fill="white"/>
<path fill-rule="evenodd" clip-rule="evenodd" d="M5.95695 9.63321C6.75592 9.63321 7.37049 9.76783 7.79296 10.0445C8.2155 10.3213 8.43065 10.7551 8.43065 11.3385C8.43065 11.705 8.3462 11.9967 8.17713 12.221C8.00043 12.4529 7.75463 12.6324 7.43193 12.7596C7.53948 12.8867 7.65468 13.0363 7.76992 13.2008C7.88522 13.3728 8.0081 13.5449 8.12341 13.7244C8.23857 13.9113 8.3462 14.0984 8.45372 14.2928C8.56131 14.4947 8.66104 14.6892 8.75331 14.8762H7.4165C7.31673 14.7042 7.21682 14.5322 7.11698 14.3601C7.0171 14.1881 6.91719 14.0161 6.80963 13.8515C6.70204 13.687 6.60224 13.5299 6.49465 13.3804C6.39481 13.2382 6.28725 13.1036 6.18731 12.984L5.59584 12.9839V14.8762H4.39734V9.76783C4.6586 9.71549 4.92747 9.68555 5.21167 9.66315C5.48825 9.64069 5.73412 9.63321 5.95694 9.63321H5.95695ZM6.02607 10.6279C5.94151 10.6279 5.86468 10.6279 5.79556 10.6355C5.72644 10.6429 5.65732 10.6429 5.59585 10.6504V12.0565H5.93387C6.38717 12.0565 6.70976 12.0042 6.90187 11.8919C7.09387 11.7798 7.19371 11.5928 7.19371 11.331C7.19382 11.0768 7.09387 10.8972 6.90187 10.785C6.70205 10.6803 6.4101 10.6279 6.02607 10.6279H6.02607Z" fill="white"/>
<path fill-rule="evenodd" clip-rule="evenodd" d="M8.97131 14.8762V9.69302H12.5668V10.6728H10.1698V11.69H12.2978V12.6473H10.1698V13.8964H12.7434V14.8762H8.97131Z" fill="white"/>
<path fill-rule="evenodd" clip-rule="evenodd" d="M14.4903 9.69302C14.5825 9.85758 14.69 10.0595 14.813 10.2989C14.9282 10.5457 15.0588 10.8075 15.1893 11.0842C15.3201 11.3685 15.4506 11.6601 15.5735 11.9518C15.7041 12.2435 15.8271 12.5202 15.9422 12.782C16.0499 12.5202 16.1728 12.2435 16.3034 11.9518C16.4262 11.6601 16.5568 11.3685 16.6875 11.0842C16.8181 10.8075 16.9486 10.5457 17.0638 10.2989C17.1868 10.0595 17.2944 9.85758 17.3865 9.69302H18.4775C18.5313 10.0371 18.5773 10.4185 18.6235 10.8449C18.6618 11.2712 18.7003 11.7199 18.7386 12.1762C18.7694 12.6398 18.8001 13.1036 18.8309 13.5673C18.854 14.031 18.8769 14.4648 18.9 14.8762H17.7322C17.7169 14.3751 17.6939 13.8216 17.6708 13.2307C17.6477 12.6398 17.6094 12.0416 17.5556 11.4358C17.4633 11.6451 17.3635 11.877 17.2483 12.1313C17.133 12.3856 17.0254 12.6398 16.9103 12.8942C16.8027 13.1485 16.6952 13.3878 16.5952 13.6196C16.4876 13.8515 16.4032 14.0534 16.3341 14.218H15.4966C15.4199 14.0534 15.3354 13.8515 15.2278 13.6196C15.1279 13.3878 15.0204 13.1485 14.9128 12.8942C14.7976 12.6398 14.69 12.3856 14.5748 12.1313C14.4672 11.877 14.3597 11.6452 14.2675 11.4358C14.2138 12.0415 14.1753 12.6398 14.1523 13.2307C14.1292 13.8216 14.1062 14.3751 14.0908 14.8762H12.9231C12.9461 14.4648 12.9691 14.031 12.9999 13.5673C13.023 13.1036 13.0537 12.6398 13.092 12.1762C13.1228 11.7199 13.1612 11.2712 13.2073 10.8449C13.2457 10.4185 13.2919 10.0371 13.3456 9.69302H14.4903H14.4903Z" fill="white"/>
<path fill-rule="evenodd" clip-rule="evenodd" d="M23.3773 14.9809C23.0009 14.9809 22.6782 14.9285 22.4093 14.8238C22.1405 14.7266 21.9176 14.5845 21.7409 14.3975C21.5643 14.218 21.4336 14.0011 21.3491 13.7469C21.2647 13.5 21.2185 13.2233 21.2185 12.9166L21.2186 9.69302H22.417V12.8194C22.417 13.0288 22.44 13.2083 22.4938 13.3504C22.5399 13.5 22.609 13.6196 22.6936 13.7094C22.7781 13.8067 22.8779 13.874 23.0009 13.9113C23.1161 13.9488 23.2467 13.9712 23.3926 13.9712C23.6846 13.9712 23.9228 13.8815 24.1071 13.7094C24.2838 13.5374 24.376 13.2382 24.376 12.8194V9.69302H25.5744V12.9166C25.5744 13.2233 25.5284 13.5 25.4439 13.7543C25.3594 14.0086 25.2211 14.2255 25.0443 14.405C24.8677 14.592 24.6372 14.7341 24.3607 14.8313C24.0841 14.9285 23.7537 14.9809 23.3772 14.9809H23.3773Z" fill="white"/>
<path fill-rule="evenodd" clip-rule="evenodd" d="M27.5902 9.69302C27.6825 9.85758 27.79 10.0595 27.9129 10.2989C28.0282 10.5457 28.1587 10.8075 28.2893 11.0842C28.42 11.3685 28.5505 11.6601 28.6734 11.9518C28.804 12.2435 28.927 12.5202 29.0423 12.782C29.1498 12.5202 29.2727 12.2435 29.4033 11.9518C29.5262 11.6601 29.6568 11.3685 29.7874 11.0842C29.9181 10.8075 30.0487 10.5457 30.1639 10.2989C30.2868 10.0595 30.3943 9.85758 30.4866 9.69302H31.5775C31.6312 10.0371 31.6773 10.4185 31.7234 10.8449C31.7618 11.2712 31.8002 11.7199 31.8387 12.1762C31.8694 12.6398 31.9001 13.1036 31.9308 13.5673C31.9539 14.031 31.9769 14.4648 32 14.8762H30.8323C30.8168 14.3751 30.7938 13.8216 30.7708 13.2307C30.7477 12.6398 30.7094 12.0416 30.6555 11.4358C30.5633 11.6451 30.4635 11.877 30.3483 12.1313C30.233 12.3856 30.1255 12.6398 30.0102 12.8942C29.9027 13.1485 29.7951 13.3878 29.6953 13.6196C29.5877 13.8515 29.5031 14.0534 29.434 14.218H28.5966C28.5198 14.0534 28.4353 13.8515 28.3278 13.6196C28.2279 13.3878 28.1202 13.1485 28.0128 12.8942C27.8976 12.6398 27.79 12.3856 27.6748 12.1313C27.5671 11.877 27.4597 11.6452 27.3675 11.4358C27.3137 12.0415 27.2753 12.6398 27.2522 13.2307C27.2292 13.8216 27.2061 14.3751 27.1907 14.8762H26.0231C26.046 14.4648 26.0691 14.031 26.0998 13.5673C26.1229 13.1036 26.1537 12.6398 26.192 12.1762C26.2228 11.7199 26.2611 11.2712 26.3073 10.8449C26.3458 10.4185 26.3917 10.0371 26.4455 9.69302H27.5902V9.69302Z" fill="white"/>
<path fill-rule="evenodd" clip-rule="evenodd" d="M20.6162 10.9664L19.4177 11.1134V14.8762H20.6162V10.9664Z" fill="white"/>
<path fill-rule="evenodd" clip-rule="evenodd" d="M19.4177 10.8264L20.6162 10.6795V9.69302H19.4177V10.8264Z" fill="#FDD028"/>
</svg>
