<svg width="477" height="227" viewBox="0 0 477 227" fill="none" xmlns="http://www.w3.org/2000/svg">
<path d="M0 0V5.55849C4.44506 39.557 17.3074 87.6796 42.4032 129.963C69.3457 175.358 110.414 214.061 170.334 221.272C207.769 225.778 234.783 218.321 256.967 205.803C274.383 195.977 288.824 183.026 302.973 170.337C306.829 166.878 310.664 163.439 314.531 160.089C332.603 144.429 351.412 130.664 376.566 125.623C401.719 120.581 433.268 124.253 476.83 143.581L477 143.198V142.932C433.412 123.607 401.748 119.9 376.436 124.973C351.107 130.049 332.191 143.909 314.098 159.587C310.212 162.954 306.366 166.403 302.502 169.868L302.502 169.869C288.359 182.551 273.988 195.438 256.642 205.226C234.579 217.675 207.706 225.102 170.413 220.614C110.767 213.436 69.8526 174.914 42.9728 129.625C16.5522 85.1089 3.71557 34.0912 0 0Z" fill="url(#paint0_linear)"/>
<path d="M0 22.383V25.9942C6.18918 58.1247 19.2099 98.3126 41.0799 134.276C68.685 179.669 110.415 218.37 170.333 225.582C207.763 230.086 234.814 223.399 257.059 212.036C274.275 203.241 288.615 191.64 302.636 180.296L302.637 180.295C306.714 176.997 310.763 173.721 314.849 170.542C333.001 156.417 351.891 144.18 377.11 140.284C402.236 136.402 433.689 140.793 477 159.938V159.214C433.756 140.137 402.249 135.729 377.009 139.628C351.621 143.551 332.621 155.872 314.442 170.018C310.337 173.213 306.274 176.5 302.19 179.803L302.187 179.806C288.175 191.142 273.907 202.685 256.758 211.445C234.631 222.749 207.711 229.412 170.413 224.923C110.766 217.745 69.1881 179.222 41.6458 133.931C19.0233 96.7304 5.88748 54.99 0 22.383Z" fill="url(#paint1_linear)"/>
<defs>
<linearGradient id="paint0_linear" x1="472.528" y1="223.185" x2="-5.30002" y2="223.185" gradientUnits="userSpaceOnUse">
<stop stop-color="#FDD028" stop-opacity="0"/>
<stop offset="0.274464" stop-color="#FDD028"/>
<stop offset="0.89883" stop-color="#FDD028"/>
<stop offset="1" stop-color="#FDD028" stop-opacity="0"/>
</linearGradient>
<linearGradient id="paint1_linear" x1="472.528" y1="223.185" x2="-5.30002" y2="223.185" gradientUnits="userSpaceOnUse">
<stop stop-color="#FDD028" stop-opacity="0"/>
<stop offset="0.274464" stop-color="#FDD028"/>
<stop offset="0.89883" stop-color="#FDD028"/>
<stop offset="1" stop-color="#FDD028" stop-opacity="0"/>
</linearGradient>
</defs>
</svg>
