<svg width="20" height="21" viewBox="0 0 20 21" fill="none" xmlns="http://www.w3.org/2000/svg">
<g clip-path="url(#clip0)">
<path d="M11.9141 10.1406C11.9141 11.1978 11.0571 12.0547 10 12.0547C8.94287 12.0547 8.08594 11.1978 8.08594 10.1406C8.08594 9.0835 8.94287 8.22656 10 8.22656C11.0571 8.22656 11.9141 9.0835 11.9141 10.1406Z" fill="#DFDFDF"/>
<path d="M14.4764 6.75406C14.3844 6.50473 14.2376 6.27905 14.0469 6.09381C13.8617 5.90308 13.6361 5.75629 13.3867 5.66428C13.1843 5.58569 12.8804 5.49216 12.3205 5.46667C11.7149 5.43906 11.5333 5.43311 10.0001 5.43311C8.46677 5.43311 8.28519 5.4389 7.67972 5.46652C7.11987 5.49216 6.81577 5.58569 6.61359 5.66428C6.36411 5.75629 6.13843 5.90308 5.95334 6.09381C5.7626 6.27905 5.61581 6.50458 5.52365 6.75406C5.44507 6.95639 5.35153 7.2605 5.32605 7.82034C5.29843 8.42581 5.29248 8.60739 5.29248 10.1407C5.29248 11.674 5.29843 11.8555 5.32605 12.4612C5.35153 13.021 5.44507 13.325 5.52365 13.5273C5.61581 13.7768 5.76245 14.0023 5.95319 14.1875C6.13843 14.3783 6.36395 14.5251 6.61343 14.6171C6.81577 14.6958 7.11987 14.7893 7.67972 14.8148C8.28519 14.8424 8.46661 14.8482 9.99997 14.8482C11.5335 14.8482 11.7151 14.8424 12.3204 14.8148C12.8802 14.7893 13.1843 14.6958 13.3867 14.6171C13.8875 14.4239 14.2833 14.0281 14.4764 13.5273C14.555 13.325 14.6486 13.021 14.6742 12.4612C14.7018 11.8555 14.7076 11.674 14.7076 10.1407C14.7076 8.60739 14.7018 8.42581 14.6742 7.82034C14.6487 7.2605 14.5552 6.95639 14.4764 6.75406ZM10.0001 13.0892C8.37155 13.0892 7.05136 11.7692 7.05136 10.1406C7.05136 8.51202 8.37155 7.19199 10.0001 7.19199C11.6285 7.19199 12.9487 8.51202 12.9487 10.1406C12.9487 11.7692 11.6285 13.0892 10.0001 13.0892ZM13.0653 7.7645C12.6848 7.7645 12.3762 7.45596 12.3762 7.07541C12.3762 6.69485 12.6848 6.38632 13.0653 6.38632C13.4459 6.38632 13.7544 6.69485 13.7544 7.07541C13.7542 7.45596 13.4459 7.7645 13.0653 7.7645Z" fill="#DFDFDF"/>
<path d="M10 0.140625C4.478 0.140625 0 4.61862 0 10.1406C0 15.6626 4.478 20.1406 10 20.1406C15.522 20.1406 20 15.6626 20 10.1406C20 4.61862 15.522 0.140625 10 0.140625ZM15.7076 12.508C15.6798 13.1193 15.5826 13.5366 15.4407 13.9019C15.1424 14.6732 14.5326 15.283 13.7613 15.5813C13.3961 15.7232 12.9787 15.8203 12.3676 15.8482C11.7552 15.8761 11.5596 15.8828 10.0002 15.8828C8.44055 15.8828 8.24509 15.8761 7.6326 15.8482C7.02148 15.8203 6.604 15.7232 6.23886 15.5813C5.85556 15.4371 5.50858 15.2111 5.22171 14.9189C4.92966 14.6322 4.70367 14.2851 4.55948 13.9019C4.41757 13.5368 4.32037 13.1193 4.2926 12.5082C4.26437 11.8957 4.25781 11.7001 4.25781 10.1406C4.25781 8.58118 4.26437 8.38556 4.29245 7.77322C4.32022 7.16196 4.41727 6.74463 4.55917 6.37933C4.70337 5.99619 4.9295 5.64905 5.22171 5.36234C5.50842 5.07013 5.85556 4.84415 6.23871 4.69995C6.604 4.55804 7.02133 4.461 7.6326 4.43307C8.24493 4.40515 8.44055 4.39844 10 4.39844C11.5594 4.39844 11.7551 4.40515 12.3674 4.43323C12.9787 4.461 13.396 4.55804 13.7613 4.6998C14.1444 4.84399 14.4916 5.07013 14.7784 5.36234C15.0705 5.6492 15.2966 5.99619 15.4407 6.37933C15.5827 6.74463 15.6798 7.16196 15.7077 7.77322C15.7356 8.38556 15.7422 8.58118 15.7422 10.1406C15.7422 11.7001 15.7356 11.8957 15.7076 12.508Z" fill="#DFDFDF"/>
</g>
<defs>
<clipPath id="clip0">
<rect width="20" height="20" fill="white" transform="translate(0 0.140625)"/>
</clipPath>
</defs>
</svg>
