<svg width="20" height="21" viewBox="0 0 20 21" fill="none" xmlns="http://www.w3.org/2000/svg">
<path d="M10 0.140625C4.478 0.140625 0 4.61862 0 10.1406C0 15.6626 4.478 20.1406 10 20.1406C15.522 20.1406 20 15.6626 20 10.1406C20 4.61862 15.522 0.140625 10 0.140625ZM7.09412 15.2578H4.65866V7.93069H7.09412V15.2578ZM5.87646 6.93018H5.8606C5.04333 6.93018 4.51477 6.36758 4.51477 5.66446C4.51477 4.94547 5.05951 4.39844 5.89264 4.39844C6.72577 4.39844 7.23846 4.94547 7.25433 5.66446C7.25433 6.36758 6.72577 6.93018 5.87646 6.93018ZM15.8759 15.2578H13.4407V11.338C13.4407 10.3529 13.0881 9.68103 12.2069 9.68103C11.5341 9.68103 11.1334 10.1342 10.9573 10.5717C10.8929 10.7282 10.8772 10.9471 10.8772 11.166V15.2578H8.44193C8.44193 15.2578 8.47382 8.6181 8.44193 7.93069H10.8772V8.96814C11.2009 8.46887 11.7799 7.75873 13.0721 7.75873C14.6744 7.75873 15.8759 8.80594 15.8759 11.0565V15.2578Z" fill="#DFDFDF"/>
</svg>
