<svg width="93" height="53" viewBox="0 0 93 53" fill="none" xmlns="http://www.w3.org/2000/svg">
<path fill-rule="evenodd" clip-rule="evenodd" d="M17.268 52.8893C17.1852 52.6678 17.1031 52.4463 17.0284 52.2325C16.9536 52.0184 16.8789 51.8043 16.7962 51.5828H14.447L13.9757 52.8893H13.2197C13.4216 52.3504 13.6088 51.8488 13.7811 51.3836C13.953 50.9261 14.1252 50.4908 14.2972 50.0773C14.4621 49.6642 14.6266 49.2657 14.7911 48.8892C14.9559 48.5129 15.128 48.1441 15.3074 47.7746H15.9734C16.1529 48.144 16.3248 48.5128 16.4897 48.8892C16.6543 49.2657 16.8188 49.6642 16.9908 50.0773C17.1557 50.4908 17.3276 50.9261 17.4996 51.3836C17.6717 51.8488 17.8586 52.3504 18.0608 52.8893H17.268V52.8893ZM16.587 50.9926C16.4298 50.5644 16.2727 50.1511 16.1154 49.7453C15.9584 49.3468 15.7938 48.963 15.6217 48.5942C15.4495 48.963 15.2847 49.3468 15.128 49.7453C14.9705 50.1511 14.8136 50.5644 14.6566 50.9926H16.587ZM22.1525 50.3726H22.8788V52.7638C22.8186 52.7859 22.7363 52.8081 22.624 52.8302C22.5121 52.8524 22.3772 52.882 22.2349 52.9041C22.0854 52.926 21.9209 52.9481 21.749 52.9705C21.5765 52.9854 21.397 52.9927 21.2177 52.9927C20.8509 52.9927 20.5215 52.9335 20.2223 52.8153C19.9231 52.6974 19.6687 52.5278 19.4515 52.2989C19.2349 52.0698 19.0699 51.7969 18.9577 51.4649C18.8382 51.1327 18.778 50.7563 18.778 50.3284C18.778 49.9002 18.8453 49.5165 18.9802 49.1844C19.1076 48.8522 19.2871 48.5793 19.5117 48.3503C19.7358 48.1217 19.998 47.952 20.3045 47.8338C20.6042 47.7157 20.9258 47.6568 21.2697 47.6568C21.5019 47.6568 21.7114 47.6712 21.8985 47.7008C22.078 47.7305 22.2349 47.7672 22.3623 47.8042C22.4896 47.8413 22.6018 47.8854 22.6841 47.9225C22.7662 47.9591 22.8186 47.9888 22.8486 48.0108L22.6168 48.6088C22.4744 48.5128 22.2801 48.4389 22.0404 48.3726C21.8011 48.3136 21.5541 48.2839 21.307 48.2839C21.0453 48.2839 20.806 48.3284 20.5891 48.4244C20.3722 48.52 20.185 48.6529 20.0353 48.8301C19.8782 49.0071 19.7584 49.2213 19.6762 49.4723C19.594 49.7306 19.5489 50.011 19.5489 50.3284C19.5489 50.6306 19.5865 50.9115 19.6612 51.1624C19.7282 51.413 19.8406 51.6271 19.9906 51.8043C20.1325 51.9888 20.3195 52.1291 20.5366 52.225C20.7535 52.3211 21.008 52.3726 21.2998 52.3726C21.5094 52.3726 21.6888 52.3577 21.8387 52.3358C21.9806 52.3137 22.0854 52.2989 22.1525 52.2767V50.3726L22.1525 50.3726ZM24.3819 52.8893V47.7746H27.5468V48.3873H25.1075V49.9077H27.2774V50.5054H25.1075V52.2767H27.7337V52.8893H24.3819ZM25.9608 46.0625L26.9781 47.1178L26.6862 47.4427L25.9607 46.7932L25.2347 47.4427L24.9429 47.1178L25.9607 46.0625H25.9608ZM32.5742 52.8893C32.4618 52.7048 32.3421 52.5056 32.2001 52.2767C32.0577 52.048 31.9006 51.8117 31.7359 51.5683C31.5714 51.3245 31.3994 51.0813 31.2273 50.8301C31.0477 50.5792 30.8681 50.3356 30.696 50.0995C30.5241 49.8706 30.3517 49.6494 30.1874 49.4427C30.0226 49.2361 29.873 49.0515 29.7308 48.8967V52.8893H29.0202V47.7746H29.5963C29.8279 48.0184 30.0828 48.3061 30.3517 48.6308C30.6136 48.9629 30.8829 49.2949 31.1452 49.642C31.4069 49.9888 31.6538 50.3356 31.8858 50.6678C32.1178 50.9998 32.3124 51.3023 32.4694 51.5608V47.7746H33.1804V52.8893H32.5742H32.5742ZM37.0631 53C36.6959 53 36.3672 52.9408 36.0678 52.8227C35.7684 52.7048 35.5137 52.5348 35.297 52.3063C35.0799 52.0773 34.9156 51.7969 34.8032 51.4649C34.6835 51.1327 34.6238 50.7563 34.6238 50.3284C34.6238 49.9002 34.6909 49.5165 34.8258 49.1844C34.9528 48.8522 35.1323 48.5793 35.3568 48.3503C35.5814 48.1217 35.8433 47.952 36.1424 47.8338C36.4419 47.7157 36.7634 47.6568 37.1003 47.6568C37.3172 47.6568 37.5119 47.6712 37.6839 47.7008C37.8561 47.7305 38.0056 47.7672 38.1327 47.8042C38.2601 47.8413 38.3572 47.8854 38.4395 47.9225C38.5219 47.9591 38.5742 47.9888 38.6043 48.0108L38.3949 48.6015C38.3499 48.5717 38.2826 48.5422 38.2003 48.5055C38.1177 48.4684 38.0204 48.4389 37.9161 48.4021C37.8036 48.3651 37.6912 48.3358 37.5641 48.3136C37.4371 48.2914 37.3024 48.2839 37.1749 48.2839C36.8982 48.2839 36.6514 48.3284 36.4342 48.4244C36.2174 48.52 36.0302 48.6529 35.8733 48.8301C35.7159 49.0071 35.6036 49.2213 35.5214 49.4723C35.4392 49.7306 35.3943 50.011 35.3943 50.3284C35.3943 50.6306 35.4316 50.9115 35.5064 51.1624C35.5739 51.413 35.6861 51.6271 35.8281 51.8043C35.9705 51.9888 36.1577 52.1291 36.3747 52.225C36.5913 52.3211 36.8386 52.3726 37.1303 52.3726C37.4667 52.3726 37.7437 52.3358 37.9607 52.2693C38.1778 52.2029 38.3423 52.1366 38.4545 52.0847L38.6417 52.6752C38.6043 52.6974 38.5444 52.7267 38.4545 52.7638C38.3648 52.8008 38.2525 52.8374 38.1177 52.8746C37.9831 52.9115 37.8262 52.9408 37.6463 52.9631C37.4667 52.9854 37.2722 53 37.0626 53H37.0631L37.0631 53ZM39.8378 47.7746H40.5637V52.8893H39.8378V47.7746ZM45.6811 52.8893C45.5985 52.6678 45.5161 52.4463 45.4416 52.2325C45.3667 52.0184 45.2916 51.8043 45.2095 51.5828H42.86L42.3886 52.8893H41.6327C41.8349 52.3504 42.0219 51.8488 42.1939 51.3836C42.3662 50.9261 42.5383 50.4908 42.7105 50.0773C42.8748 49.6642 43.0396 49.2657 43.2041 48.8892C43.3687 48.5129 43.5406 48.1441 43.7206 47.7746H44.3863C44.5661 48.144 44.738 48.5128 44.9025 48.8892C45.0675 49.2657 45.2318 49.6642 45.4039 50.0773C45.5687 50.4908 45.7406 50.9261 45.9129 51.3836C46.0848 51.8488 46.2719 52.3504 46.4739 52.8893H45.6811V52.8893ZM44.9997 50.9926C44.8428 50.5644 44.6859 50.1511 44.5285 49.7453C44.3715 49.3468 44.2068 48.963 44.0346 48.5942C43.8627 48.963 43.6981 49.3468 43.5406 49.7453C43.3837 50.1511 43.2269 50.5644 43.0695 50.9926H44.9997ZM55.6217 50.3284C55.6217 50.7711 55.5543 51.155 55.4122 51.4795C55.27 51.8117 55.0754 52.0773 54.8213 52.2914C54.5669 52.5056 54.2601 52.6678 53.9083 52.7711C53.5567 52.882 53.1675 52.9335 52.7409 52.9335C52.5318 52.9335 52.2997 52.926 52.0529 52.9115C51.7983 52.8893 51.5662 52.8598 51.3645 52.8081V47.8487C51.5662 47.7967 51.7983 47.7673 52.0529 47.7453C52.2997 47.7305 52.5318 47.7231 52.7409 47.7231C53.1675 47.7231 53.5567 47.7746 53.9083 47.878C54.2601 47.9888 54.5669 48.144 54.8213 48.3576C55.0754 48.5717 55.27 48.8448 55.4122 49.1697C55.5543 49.5016 55.6217 49.8854 55.6217 50.3284ZM52.8008 52.3063C53.4894 52.3063 54.0055 52.1291 54.3423 51.7821C54.6788 51.4353 54.8514 50.9555 54.8514 50.3284C54.8514 49.701 54.6788 49.2138 54.3423 48.867C54.0055 48.52 53.4894 48.3503 52.8008 48.3503C52.5989 48.3503 52.4416 48.3503 52.3296 48.3576C52.2173 48.3651 52.1351 48.3651 52.09 48.3726V52.2839C52.1351 52.2914 52.2173 52.2914 52.3296 52.2989C52.442 52.3063 52.5989 52.3063 52.8008 52.3063ZM57.065 47.7746H57.791V52.8893H57.065V47.7746ZM62.6085 50.3726H63.3344V52.7638C63.2746 52.7859 63.1921 52.8081 63.0801 52.8302C62.9678 52.8524 62.833 52.882 62.691 52.9041C62.5412 52.926 62.3768 52.9481 62.2048 52.9705C62.0327 52.9854 61.8528 52.9927 61.6732 52.9927C61.3068 52.9927 60.9775 52.9335 60.6779 52.8153C60.3791 52.6974 60.1244 52.5278 59.9074 52.2989C59.6906 52.0698 59.5258 51.7969 59.4137 51.4649C59.294 51.1327 59.234 50.7563 59.234 50.3284C59.2342 49.9002 59.3016 49.5165 59.436 49.1844C59.5634 48.8522 59.743 48.5793 59.9676 48.3503C60.1916 48.1217 60.4538 47.952 60.7607 47.8338C61.0599 47.7157 61.3815 47.6568 61.7258 47.6568C61.9576 47.6568 62.1671 47.6712 62.3542 47.7008C62.5336 47.7305 62.691 47.7672 62.8181 47.8042C62.9454 47.8413 63.0576 47.8854 63.1397 47.9225C63.2222 47.9591 63.2746 47.9888 63.3044 48.0108L63.0725 48.6088C62.9303 48.5128 62.7356 48.4389 62.4967 48.3726C62.2568 48.3136 62.01 48.2839 61.763 48.2839C61.5013 48.2839 61.2617 48.3284 61.045 48.4244C60.8279 48.52 60.6407 48.6529 60.4906 48.8301C60.334 49.0071 60.2141 49.2213 60.1319 49.4723C60.0498 49.7306 60.0047 50.011 60.0047 50.3284C60.0049 50.6306 60.0421 50.9115 60.1168 51.1624C60.1845 51.413 60.2963 51.6271 60.4462 51.8043C60.5884 51.9888 60.7753 52.1291 60.9923 52.225C61.2094 52.3211 61.4637 52.3726 61.7556 52.3726C61.9651 52.3726 62.1446 52.3577 62.2944 52.3358C62.4365 52.3137 62.5412 52.2989 62.6085 52.2767V50.3726L62.6085 50.3726ZM64.8375 47.7746H65.5634V52.8893H64.8375V47.7746ZM70.6804 47.7746V48.3947H69.0494V52.8893H68.3235V48.3947H66.6922V47.7746H70.6804ZM74.7948 52.8893C74.7125 52.6678 74.6304 52.4463 74.5555 52.2325C74.4809 52.0184 74.4058 51.8043 74.3235 51.5828H71.9739L71.5025 52.8893H70.747C70.949 52.3504 71.136 51.8488 71.3082 51.3836C71.4805 50.9261 71.6523 50.4908 71.8244 50.0773C71.9892 49.6642 72.1535 49.2657 72.3183 48.8892C72.4829 48.5129 72.655 48.1441 72.8343 47.7746H73.5007C73.68 48.144 73.8521 48.5128 74.0166 48.8892C74.1813 49.2657 74.3461 49.6642 74.5182 50.0773C74.6826 50.4908 74.855 50.9261 75.027 51.3836C75.199 51.8488 75.3861 52.3504 75.5882 52.8893H74.7948L74.7948 52.8893ZM74.1143 50.9926C73.957 50.5644 73.7996 50.1511 73.6425 49.7453C73.4857 49.3468 73.3208 48.963 73.1485 48.5942C72.9766 48.963 72.8122 49.3468 72.6549 49.7453C72.4978 50.1511 72.3408 50.5644 72.1835 50.9926H74.1143ZM79.7772 52.2693V52.8893H76.6573V47.7746H77.3829V52.2693H79.7772V52.2693Z" fill="white"/>
<path fill-rule="evenodd" clip-rule="evenodd" d="M34.7037 19.1964C35.3929 20.8052 36.1818 22.1543 37.0091 23.322C37.0459 23.3735 37.0822 23.4246 37.119 23.4756L36.5234 23.5494C34.3895 22.5611 29.6643 20.03 27.3405 16.5099C24.5367 12.263 25.1291 7.95847 27.5407 6.69927C28.9456 5.9657 31.2623 6.68291 31.5874 8.6252C31.5874 8.6252 31.2623 8.20529 30.5611 8.37818C29.8605 8.55107 29.5007 9.74938 30.1857 10.3534C30.8949 10.9789 31.8878 10.8967 32.2385 10.156C32.2477 10.1362 32.2572 10.1139 32.2666 10.0893C32.3066 10.0182 32.3399 9.94187 32.3673 9.86138C32.3897 9.79503 32.4078 9.72565 32.422 9.65375C32.444 9.96589 32.4707 10.2857 32.5042 10.6132C32.5973 11.5299 32.7384 12.504 32.943 13.5197C33.3036 15.3107 33.8617 17.2313 34.7037 19.1964ZM57.108 21.5004C57.5121 20.7925 57.8979 20.0255 58.2565 19.1882C59.0985 17.2231 59.6566 15.3025 60.0172 13.5116C60.2217 12.4958 60.3625 11.522 60.4559 10.6053C60.5131 10.044 60.5522 9.50418 60.5771 8.98935C60.5813 9.47015 60.6568 9.86955 60.7406 10.0895C60.7499 10.1138 60.7591 10.1362 60.7686 10.156C61.119 10.8967 62.1119 10.9789 62.8211 10.3534C63.5062 9.74937 63.1466 8.55106 62.4458 8.37817C61.745 8.20528 61.4195 8.62519 61.4195 8.62519C61.745 6.6829 64.0614 5.9657 65.4662 6.69926C67.8779 7.95847 68.4703 12.263 65.6667 16.5099C64.4218 18.3952 62.4881 19.9968 60.6328 21.2298L57.108 21.5003V21.5004ZM63.9716 20.9737C64.3562 20.6791 64.7437 20.3486 65.1362 19.972C66.8452 18.333 68.856 15.923 69.2216 12.943C69.7068 8.99006 67.6795 4.83424 64.2732 5.09438C61.5242 5.30423 60.7233 7.09888 60.5962 8.51744C60.7042 5.23809 60.2435 3.08999 60.2435 3.08999C60.0541 2.8858 59.8209 2.69433 59.5513 2.51447C59.1628 2.25564 58.6983 2.02145 58.179 1.80988C57.5673 1.56095 56.8791 1.34292 56.1487 1.15337C53.3004 0.413426 49.8078 0.100273 47.6888 0.0211965C47.1389 0.00069584 46.6815 -0.00425375 46.3521 0.00342146C45.224 -0.0141529 43.2496 0.0851148 41.1258 0.354951C39.8838 0.512794 38.5905 0.728804 37.3859 1.01419C37.0741 1.08802 36.7684 1.16628 36.4712 1.24949C36.141 1.34189 35.8217 1.44026 35.5154 1.54457C34.8645 1.76675 34.2748 2.01679 33.7787 2.29723C33.3476 2.54071 32.9867 2.80701 32.7167 3.09816C32.7167 3.09816 32.2964 5.057 32.3524 8.08976C32.1073 6.76117 31.2122 5.28363 28.7338 5.09438C25.3273 4.83423 23.3001 8.99005 23.7852 12.943C24.1512 15.923 26.1617 18.333 27.8706 19.972C30.0972 22.1076 32.1566 22.7563 34.4287 23.8097L15.5911 26.1506L46.609 23.7701L77.4158 19.9418L63.9716 20.9737V20.9737Z" fill="#F8AF30"/>
<path fill-rule="evenodd" clip-rule="evenodd" d="M34.7037 19.1964C35.3929 20.8052 36.1818 22.1543 37.0091 23.322C37.0459 23.3735 37.0822 23.4246 37.119 23.4756L36.5234 23.5494C34.3895 22.5611 29.6643 20.03 27.3405 16.5099C24.5367 12.263 25.1291 7.95847 27.5407 6.69927C28.9456 5.9657 31.2623 6.68291 31.5874 8.6252C31.5874 8.6252 31.2623 8.20529 30.5611 8.37818C29.8605 8.55107 29.5007 9.74938 30.1857 10.3534C30.8949 10.9789 31.8878 10.8967 32.2385 10.156C32.2477 10.1362 32.2572 10.1139 32.2666 10.0893C32.3066 10.0182 32.3399 9.94187 32.3673 9.86138C32.3897 9.79503 32.4078 9.72565 32.422 9.65375C32.444 9.96589 32.4707 10.2857 32.5042 10.6132C32.5973 11.5299 32.7384 12.504 32.943 13.5197C33.3036 15.3107 33.8617 17.2313 34.7037 19.1964ZM57.108 21.5004C57.5121 20.7925 57.8979 20.0255 58.2565 19.1882C59.0985 17.2231 59.6566 15.3025 60.0172 13.5116C60.2217 12.4958 60.3625 11.522 60.4559 10.6053C60.5131 10.044 60.5522 9.50418 60.5771 8.98935C60.5813 9.47015 60.6568 9.86955 60.7406 10.0895C60.7499 10.1138 60.7591 10.1362 60.7686 10.156C61.119 10.8967 62.1119 10.9789 62.8211 10.3534C63.5062 9.74937 63.1466 8.55106 62.4458 8.37817C61.745 8.20528 61.4195 8.62519 61.4195 8.62519C61.745 6.6829 64.0614 5.9657 65.4662 6.69926C67.8779 7.95847 68.4703 12.263 65.6667 16.5099C64.4218 18.3952 62.4881 19.9968 60.6328 21.2298L57.108 21.5003V21.5004ZM63.9716 20.9737C64.3562 20.6791 64.7437 20.3486 65.1362 19.972C66.8452 18.333 68.856 15.923 69.2216 12.943C69.7068 8.99006 67.6795 4.83424 64.2732 5.09438C61.5242 5.30423 60.7233 7.09888 60.5962 8.51744C60.7042 5.23809 60.2435 3.08999 60.2435 3.08999C60.0541 2.8858 59.8209 2.69433 59.5513 2.51447C59.1628 2.25564 58.6983 2.02145 58.179 1.80988C57.5673 1.56095 56.8791 1.34292 56.1487 1.15337C53.3004 0.413426 49.8078 0.100273 47.6888 0.0211965C47.1389 0.00069584 46.6815 -0.00425375 46.3521 0.00342146C45.224 -0.0141529 43.2496 0.0851148 41.1258 0.354951C39.8838 0.512794 38.5905 0.728804 37.3859 1.01419C37.0741 1.08802 36.7684 1.16628 36.4712 1.24949C36.141 1.34189 35.8217 1.44026 35.5154 1.54457C34.8645 1.76675 34.2748 2.01679 33.7787 2.29723C33.3476 2.54071 32.9867 2.80701 32.7167 3.09816C32.7167 3.09816 32.2964 5.057 32.3524 8.08976C32.1073 6.76117 31.2122 5.28363 28.7338 5.09438C25.3273 4.83423 23.3001 8.99005 23.7852 12.943C24.1512 15.923 26.1617 18.333 27.8706 19.972C30.0972 22.1076 32.1566 22.7563 34.4287 23.8097L15.5911 26.1506L46.609 23.7701L77.4158 19.9418L63.9716 20.9737V20.9737Z" fill="#FEFEFE"/>
<path fill-rule="evenodd" clip-rule="evenodd" d="M76.0039 20.1173L75.9019 20.0581L77.4157 19.9418L76.0039 20.1173Z" fill="#F6BF2F"/>
<path fill-rule="evenodd" clip-rule="evenodd" d="M75.902 20.0581L76.0041 20.1173L74.6016 20.2917V20.1579L75.902 20.0581Z" fill="#FDD028"/>
<path fill-rule="evenodd" clip-rule="evenodd" d="M67.8621 6.90882L67.5771 7.07433V6.54858C67.6762 6.66331 67.771 6.78349 67.8621 6.90881V6.90882Z" fill="#FDD028"/>
<path fill-rule="evenodd" clip-rule="evenodd" d="M68.2075 7.4402L67.5771 7.07432L67.8621 6.90881C67.9845 7.07725 68.0997 7.25469 68.2075 7.4402H68.2075Z" fill="#FBDA25"/>
<path fill-rule="evenodd" clip-rule="evenodd" d="M67.5771 7.07434L68.2075 7.44022C69.079 8.94079 69.4642 10.9673 69.2217 12.943C69.1572 13.47 69.0409 13.9788 68.8841 14.4688L67.5771 15.2271V7.07434Z" fill="#FBDA25"/>
<path fill-rule="evenodd" clip-rule="evenodd" d="M68.3919 15.7001L67.5771 15.2271L68.8841 14.4688C68.7483 14.8937 68.5818 15.3044 68.3919 15.7001Z" fill="#F8AF30"/>
<path fill-rule="evenodd" clip-rule="evenodd" d="M67.5771 15.2271L68.3919 15.7C68.1529 16.1977 67.8765 16.6716 67.5771 17.1208V15.2271ZM72.9046 20.2882L72.4345 20.561L67.5771 21.1644V20.6969L72.9046 20.2882Z" fill="#F6BF2F"/>
<path fill-rule="evenodd" clip-rule="evenodd" d="M72.4343 20.561L72.9044 20.2882L74.6014 20.1578V20.2916L72.4343 20.561Z" fill="#FBDA25"/>
<path fill-rule="evenodd" clip-rule="evenodd" d="M64.1793 5.10255L67.5772 7.07432L66.579 7.65348C66.2726 7.24944 65.8988 6.92517 65.4662 6.69926C64.0614 5.96569 61.745 6.6829 61.4195 8.62518C61.4195 8.62518 61.745 8.20528 62.4458 8.37817C62.917 8.49431 63.2337 9.07357 63.1828 9.62425L61.3416 10.6928C61.0974 10.5977 60.8927 10.4183 60.7686 10.1559C60.7591 10.1361 60.7499 10.1138 60.7406 10.0895C60.6568 9.86954 60.5813 9.47014 60.5771 8.98934C60.5701 9.13527 60.5618 9.28311 60.5525 9.43298V5.64928C60.6049 6.45396 60.6323 7.42262 60.5962 8.51742C60.7217 7.11522 61.5063 5.34582 64.1793 5.10254V5.10255Z" fill="#FBDA25"/>
<path fill-rule="evenodd" clip-rule="evenodd" d="M67.5771 15.2271L66.6637 14.6973C67.929 11.85 67.7367 9.18032 66.579 7.6535L67.5771 7.07434V15.2271ZM61.3416 10.6928L63.1827 9.62427C63.1584 9.8933 63.0456 10.1552 62.8211 10.3534C62.3632 10.7574 61.7867 10.866 61.3416 10.6928Z" fill="#FBDA25"/>
<path fill-rule="evenodd" clip-rule="evenodd" d="M66.6636 14.6973L67.577 15.2271L65.8442 16.2327C66.1657 15.719 66.4381 15.2053 66.6636 14.6973Z" fill="#F8AF30"/>
<path fill-rule="evenodd" clip-rule="evenodd" d="M64.4333 21.5551L62.085 20.1928C63.4489 19.1431 64.7461 17.9042 65.6667 16.5099C65.7277 16.4175 65.7864 16.3251 65.8444 16.2327L67.5771 15.2272V17.1209C66.8356 18.2322 65.9518 19.19 65.1362 19.9721C64.7437 20.3486 64.3562 20.6792 63.9716 20.9738L67.5771 20.6969V21.1644L64.4333 21.5551L64.4333 21.5551Z" fill="#F8AF30"/>
<path fill-rule="evenodd" clip-rule="evenodd" d="M62.085 20.1928L64.4333 21.5551L60.5525 22.0374V21.236L60.6328 21.2299C61.1161 20.9088 61.6049 20.5624 62.085 20.1928L62.085 20.1928Z" fill="#FDD028"/>
<path fill-rule="evenodd" clip-rule="evenodd" d="M60.259 3.16793L53.5278 7.07431V0.60791C54.4228 0.756456 55.3133 0.936322 56.1485 1.15333C56.8789 1.34289 57.5671 1.56092 58.1788 1.80985C58.6981 2.02142 59.1626 2.25561 59.5511 2.51444C59.8208 2.6943 60.0539 2.88577 60.2433 3.08996L60.259 3.16793Z" fill="#FBE524"/>
<path fill-rule="evenodd" clip-rule="evenodd" d="M60.4053 11.0657L53.5278 7.07436L60.2589 3.16797C60.3086 3.42569 60.465 4.31085 60.5523 5.64933V9.43302C60.5283 9.81181 60.4968 10.203 60.4557 10.6054C60.4403 10.7573 60.4237 10.9106 60.4053 11.0657V11.0657Z" fill="#FBE524"/>
<path fill-rule="evenodd" clip-rule="evenodd" d="M53.5281 7.07434L60.4056 11.0657L60.3835 11.249L53.5281 15.2271V7.07434Z" fill="#FDD028"/>
<path fill-rule="evenodd" clip-rule="evenodd" d="M58.6565 18.2032L53.5278 15.2271L60.3833 11.249C60.2941 11.9736 60.1742 12.7302 60.017 13.5116C59.7169 15.0019 59.2797 16.5823 58.6565 18.2032Z" fill="#FBE524"/>
<path fill-rule="evenodd" clip-rule="evenodd" d="M53.5281 15.2271L58.6568 18.2032C58.5311 18.53 58.3976 18.8584 58.2565 19.1882C57.9468 19.9111 57.6168 20.5813 57.2725 21.2065L54.5569 22.7824L53.5281 22.9102V15.2271L53.5281 15.2271Z" fill="#FDD028"/>
<path fill-rule="evenodd" clip-rule="evenodd" d="M54.5569 22.7824L57.2724 21.2065C57.2179 21.3053 57.1631 21.4035 57.1079 21.5004L60.5525 21.236V22.0374L54.5569 22.7824V22.7824Z" fill="#F6BF2F"/>
<path fill-rule="evenodd" clip-rule="evenodd" d="M51.1782 0.285394L46.5037 2.9978V0.00090953C46.8163 -0.00251839 47.2187 0.00363515 47.6888 0.0212095C48.6371 0.0566593 49.8605 0.138963 51.1782 0.285394Z" fill="#FBE524"/>
<path fill-rule="evenodd" clip-rule="evenodd" d="M53.528 7.07436L46.5037 2.99781L51.1782 0.2854C51.9414 0.37002 52.7367 0.47657 53.528 0.607951V7.07436Z" fill="#F6BF2F"/>
<path fill-rule="evenodd" clip-rule="evenodd" d="M46.5037 2.9978L53.528 7.07435L46.5037 11.1509V2.9978Z" fill="#F8AF30"/>
<path fill-rule="evenodd" clip-rule="evenodd" d="M53.528 15.2271L46.5037 11.1509L53.528 7.07434V15.2271Z" fill="#FBE524"/>
<path fill-rule="evenodd" clip-rule="evenodd" d="M46.5037 11.1509L53.528 15.2271L46.5037 19.3034V11.1509Z" fill="#FDD028"/>
<path fill-rule="evenodd" clip-rule="evenodd" d="M52.8622 22.9929L46.5037 19.3034L53.528 15.2271V22.9102L52.8622 22.9929Z" fill="#FBE524"/>
<path fill-rule="evenodd" clip-rule="evenodd" d="M46.5037 19.3034L52.8622 22.993L46.6089 23.7702L46.5037 23.7784V19.3034Z" fill="#FDD028"/>
<path fill-rule="evenodd" clip-rule="evenodd" d="M46.5037 2.99781L41.8086 0.273477C43.6668 0.0651348 45.346 -0.0122193 46.3521 0.00344049L46.5037 0.000915527V2.99781Z" fill="#FDD028"/>
<path fill-rule="evenodd" clip-rule="evenodd" d="M41.8085 0.273499L46.5036 2.99783L39.479 7.07438V0.59625C40.0298 0.504156 40.5826 0.423859 41.1257 0.354991C41.3551 0.325703 41.5832 0.29874 41.8085 0.273499Z" fill="#FBDA25"/>
<path fill-rule="evenodd" clip-rule="evenodd" d="M46.5035 11.1509L39.479 7.07435L46.5035 2.9978V11.1509Z" fill="#FBE524"/>
<path fill-rule="evenodd" clip-rule="evenodd" d="M39.479 7.07434L46.5035 11.1509L39.479 15.2271V7.07434Z" fill="#F6BF2F"/>
<path fill-rule="evenodd" clip-rule="evenodd" d="M46.5035 19.3034L39.479 15.2271L46.5035 11.1509V19.3034Z" fill="#F8AF30"/>
<path fill-rule="evenodd" clip-rule="evenodd" d="M39.479 15.2271L46.5035 19.3034L39.479 23.3794V15.2271Z" fill="#FDD028"/>
<path fill-rule="evenodd" clip-rule="evenodd" d="M40.9063 24.208L39.479 23.3795L46.5035 19.3034V23.7784L40.9063 24.208Z" fill="#FBDA25"/>
<path fill-rule="evenodd" clip-rule="evenodd" d="M39.479 23.3795L40.9062 24.208L39.479 24.3174V23.3795Z" fill="#F8AF30"/>
<path fill-rule="evenodd" clip-rule="evenodd" d="M39.4791 7.07438L32.7073 3.14446L32.7167 3.09821C32.9867 2.80706 33.3476 2.54076 33.7786 2.29728C34.2748 2.01684 34.8644 1.7668 35.5154 1.54463C35.8216 1.44031 36.141 1.34194 36.4712 1.24954C36.7684 1.16632 37.0741 1.08806 37.3859 1.01424C38.0637 0.853673 38.77 0.714917 39.4791 0.596252V7.07438Z" fill="#F8AF30"/>
<path fill-rule="evenodd" clip-rule="evenodd" d="M32.7071 3.14441L39.479 7.07433L32.5564 11.0914C32.5374 10.9303 32.5201 10.7711 32.504 10.6132C32.4854 10.4321 32.4692 10.2533 32.4543 10.0769V5.0463C32.5473 3.99472 32.6722 3.32033 32.7071 3.14441Z" fill="#FBDA25"/>
<path fill-rule="evenodd" clip-rule="evenodd" d="M39.479 15.2271L32.5717 11.219L32.5564 11.0914L39.479 7.07434V15.2271Z" fill="#FDD028"/>
<path fill-rule="evenodd" clip-rule="evenodd" d="M32.5718 11.219L39.4791 15.2272L34.3091 18.227C33.6828 16.6006 33.2441 15.0149 32.9429 13.5198C32.7829 12.7248 32.6617 11.9553 32.5718 11.219Z" fill="#F8AF30"/>
<path fill-rule="evenodd" clip-rule="evenodd" d="M39.479 23.3795L35.6587 21.1627C35.3248 20.5525 35.0047 19.8992 34.7036 19.1965C34.5645 18.8719 34.4333 18.5486 34.3091 18.227L39.479 15.2272V23.3795Z" fill="#FBDA25"/>
<path fill-rule="evenodd" clip-rule="evenodd" d="M35.6587 21.1627L39.479 23.3794L37.6166 24.4603L32.4543 24.8565V24.055L34.4285 23.8097C33.7551 23.4976 33.1003 23.2207 32.4543 22.9303V21.2831C34.0342 22.3248 35.5487 23.098 36.5232 23.5494L37.1188 23.4756C37.0821 23.4246 37.0457 23.3735 37.009 23.322C36.5431 22.6644 36.0894 21.9495 35.6587 21.1627L35.6587 21.1627Z" fill="#FBE524"/>
<path fill-rule="evenodd" clip-rule="evenodd" d="M37.6167 24.4603L39.4791 23.3795V24.3174L37.6167 24.4603Z" fill="#F6BF2F"/>
<path fill-rule="evenodd" clip-rule="evenodd" d="M67.5771 7.07437L64.1792 5.1026L64.2731 5.09442C65.6096 4.99243 66.7336 5.57037 67.5771 6.54863V7.07437Z" fill="#FBE524"/>
<path fill-rule="evenodd" clip-rule="evenodd" d="M28.8277 5.1026L25.4299 7.07437V6.54863C26.2733 5.57037 27.3973 4.99243 28.7337 5.09442L28.8277 5.1026Z" fill="#FDD028"/>
<path fill-rule="evenodd" clip-rule="evenodd" d="M31.6652 10.693L29.8238 9.62428C29.7734 9.07359 30.0901 8.49433 30.561 8.37819C31.2621 8.20531 31.5873 8.62521 31.5873 8.62521C31.2621 6.68293 28.9454 5.96572 27.5405 6.69929C27.108 6.9252 26.7343 7.24947 26.4278 7.65351L25.4299 7.07435L28.8277 5.10258C31.2347 5.32162 32.1101 6.77805 32.3523 8.08978C32.3302 6.88834 32.3828 5.85573 32.4544 5.04633V10.0769C32.4425 9.9342 32.4317 9.79322 32.4218 9.65377C32.4077 9.72567 32.3896 9.79505 32.3671 9.8614C32.3397 9.94188 32.3064 10.0182 32.2665 10.0893C32.2571 10.1139 32.2476 10.1362 32.2383 10.156C32.1141 10.4183 31.9094 10.5979 31.6652 10.693V10.693Z" fill="#F6BF2F"/>
<path fill-rule="evenodd" clip-rule="evenodd" d="M25.4299 7.07434L26.4278 7.6535C25.2699 9.18013 25.0777 11.85 26.3431 14.6973L25.4299 15.2271V7.07434ZM29.8238 9.62427L31.6652 10.693C31.2199 10.8662 30.6436 10.7575 30.1855 10.3534C29.9608 10.1552 29.8485 9.8931 29.8238 9.62427Z" fill="#FBDA25"/>
<path fill-rule="evenodd" clip-rule="evenodd" d="M27.1628 16.2327L25.4299 15.2271L26.3431 14.6973C26.569 15.2053 26.8414 15.719 27.1628 16.2327H27.1628Z" fill="#F6BF2F"/>
<path fill-rule="evenodd" clip-rule="evenodd" d="M25.4299 15.2271L27.1628 16.2326C27.2206 16.3251 27.2792 16.4175 27.3403 16.5099C28.2607 17.9042 29.5579 19.1434 30.9217 20.1928L29.2714 21.1503C28.8097 20.8126 28.344 20.4259 27.8705 19.972C27.0553 19.19 26.1712 18.2327 25.4299 17.1213V15.2271V15.2271Z" fill="#F8AF30"/>
<path fill-rule="evenodd" clip-rule="evenodd" d="M28.498 25.1602L27.6277 24.6548L32.4544 24.0551V24.8565L28.498 25.1602ZM29.2715 21.1504L30.9217 20.1928C31.4288 20.583 31.9447 20.947 32.4544 21.2832V22.9304C31.3842 22.4493 30.3382 21.9305 29.2715 21.1504L29.2715 21.1504Z" fill="#FDD028"/>
<path fill-rule="evenodd" clip-rule="evenodd" d="M27.6276 24.6548L28.4979 25.1601L25.4299 25.3955V24.928L27.6276 24.6548Z" fill="#F8AF30"/>
<path fill-rule="evenodd" clip-rule="evenodd" d="M25.4299 7.07432L25.1448 6.90881C25.236 6.78348 25.331 6.66331 25.4299 6.54858V7.07433V7.07432Z" fill="#FBE524"/>
<path fill-rule="evenodd" clip-rule="evenodd" d="M25.1448 6.90881L25.43 7.07432L24.7991 7.4405C24.9068 7.25469 25.0224 7.07725 25.1448 6.90881Z" fill="#FDD028"/>
<path fill-rule="evenodd" clip-rule="evenodd" d="M25.4301 15.2271L24.1227 14.4685C23.966 13.9788 23.8499 13.4697 23.7851 12.943C23.5428 10.9673 23.9279 8.94078 24.7992 7.44052L25.43 7.07434V15.2271H25.4301Z" fill="#FDD028"/>
<path fill-rule="evenodd" clip-rule="evenodd" d="M24.1226 14.4685L25.4299 15.2271L24.6149 15.7001C24.425 15.3044 24.2585 14.8937 24.1226 14.4685Z" fill="#FDD028"/>
<path fill-rule="evenodd" clip-rule="evenodd" d="M24.615 15.7L25.43 15.2271V17.1213C25.1303 16.6721 24.8541 16.198 24.615 15.7Z" fill="#FBE524"/>
<path fill-rule="evenodd" clip-rule="evenodd" d="M22.035 25.35L21.427 25.7027L18.4058 25.9346V25.8008L22.035 25.35Z" fill="#FBDA25"/>
<path fill-rule="evenodd" clip-rule="evenodd" d="M21.427 25.7028L22.035 25.35L25.4299 24.9281V25.3956L21.427 25.7028Z" fill="#F8AF30"/>
<path fill-rule="evenodd" clip-rule="evenodd" d="M16.0901 26.1122L16.0564 26.0926L18.4058 25.8008V25.9346L16.0901 26.1122Z" fill="#FDD028"/>
<path fill-rule="evenodd" clip-rule="evenodd" d="M16.0564 26.0927L16.0901 26.1122L15.5911 26.1506L16.0564 26.0927Z" fill="#F8AF30"/>
<path fill-rule="evenodd" clip-rule="evenodd" d="M4.64385 28.3644C6.94362 28.3644 8.72963 28.7608 9.95784 29.5536C11.1858 30.3683 11.811 31.6677 11.811 33.4956C11.811 35.3236 11.1858 36.6448 9.93552 37.4597C8.68509 38.2744 6.89888 38.6928 4.57688 38.6928H3.483V43.8022H-0.000244141V28.7608C0.759143 28.6067 1.56267 28.5185 2.41123 28.4526C3.2597 28.3865 3.99636 28.3644 4.64385 28.3644V28.3644ZM4.86715 31.2934C4.62143 31.2934 4.3759 31.2934 4.13018 31.3155C3.88476 31.3375 3.66156 31.3375 3.4828 31.3595L3.483 35.7639H4.57688C5.78258 35.7639 6.69799 35.6098 7.30063 35.2796C7.90379 34.949 8.21616 34.3545 8.21616 33.4738C8.21616 33.0551 8.14921 32.7028 7.99286 32.4167C7.83662 32.1303 7.61332 31.91 7.32295 31.7339C7.033 31.5798 6.67557 31.4475 6.25129 31.3817C5.82699 31.3155 5.38039 31.2934 4.86714 31.2934L4.86715 31.2934Z" fill="white"/>
<path fill-rule="evenodd" clip-rule="evenodd" d="M17.3121 28.3644C19.6341 28.3644 21.4203 28.7608 22.6481 29.5756C23.8761 30.3905 24.5013 31.6677 24.5013 33.3855C24.5013 34.4647 24.2559 35.3236 23.7646 35.9841C23.251 36.6668 22.5366 37.1955 21.5988 37.5698C21.9114 37.9442 22.2462 38.3847 22.5811 38.869C22.9162 39.3756 23.2733 39.8822 23.6084 40.4107C23.9431 40.9612 24.2559 41.5118 24.5684 42.0844C24.8811 42.679 25.1709 43.2515 25.4391 43.8021H21.554C21.264 43.2956 20.9736 42.7891 20.6835 42.2826C20.3932 41.7759 20.1029 41.2696 19.7903 40.785C19.4776 40.3006 19.1875 39.8381 18.8748 39.3977C18.5847 38.9792 18.2721 38.5828 17.9816 38.2306L16.2627 38.2303V43.8021H12.7795V28.7608C13.5388 28.6067 14.3202 28.5185 15.1462 28.4526C15.95 28.3865 16.6645 28.3644 17.3121 28.3644H17.3121ZM17.513 31.2934C17.2673 31.2934 17.044 31.2934 16.8431 31.3155C16.6422 31.3375 16.4414 31.3375 16.2627 31.3595V35.4998H17.2451C18.5625 35.4998 19.5 35.3457 20.0583 35.0151C20.6163 34.6849 20.9065 34.1342 20.9065 33.3635C20.9068 32.6149 20.6163 32.0862 20.0583 31.7559C19.4776 31.4475 18.6291 31.2934 17.513 31.2934H17.513Z" fill="white"/>
<path fill-rule="evenodd" clip-rule="evenodd" d="M26.0728 43.8022V28.5406H36.5221V31.4255H29.5558V34.4207H35.7404V37.2394H29.5558V40.9173H37.0354V43.8022H26.0728Z" fill="white"/>
<path fill-rule="evenodd" clip-rule="evenodd" d="M42.1122 28.5406C42.3803 29.0251 42.6926 29.6197 43.0502 30.3245C43.3849 31.0511 43.7644 31.8221 44.1438 32.6369C44.5238 33.4738 44.9032 34.3324 45.2605 35.1913C45.6399 36.0503 45.9973 36.8651 46.332 37.6358C46.6449 36.8651 47.0019 36.0503 47.3815 35.1913C47.7386 34.3324 48.1181 33.4738 48.4979 32.6369C48.8774 31.8221 49.2568 31.0511 49.5917 30.3245C49.949 29.6197 50.2616 29.0251 50.5295 28.5406H53.7001C53.8563 29.5536 53.99 30.6768 54.1243 31.9321C54.2358 33.1874 54.3476 34.5086 54.459 35.8521C54.5485 37.2173 54.6376 38.5829 54.7271 39.9482C54.7942 41.3136 54.8608 42.5907 54.928 43.8022H51.5341C51.4895 42.3267 51.4227 40.697 51.3557 38.9572C51.2885 37.2173 51.1771 35.4557 51.0209 33.672C50.7527 34.2884 50.4625 34.9711 50.1278 35.72C49.7927 36.4687 49.4801 37.2173 49.1454 37.9662C48.8327 38.7149 48.5202 39.4197 48.2297 40.1022C47.9171 40.785 47.6717 41.3796 47.4708 41.8641H45.037C44.8139 41.3796 44.5682 40.785 44.2558 40.1022C43.9653 39.4197 43.6529 38.7149 43.3402 37.9662C43.0053 37.2173 42.6926 36.4687 42.3578 35.72C42.0452 34.9712 41.7328 34.2886 41.4647 33.672C41.3086 35.4557 41.1968 37.2173 41.1299 38.9572C41.0628 40.697 40.9959 42.3267 40.9514 43.8022H37.5576C37.6246 42.5907 37.6914 41.3137 37.7809 39.9482C37.8479 38.5829 37.9372 37.2173 38.0486 35.8521C38.138 34.5086 38.2495 33.1874 38.3837 31.9321C38.4953 30.6768 38.6294 29.5536 38.7856 28.5406H42.1122H42.1122Z" fill="white"/>
<path fill-rule="evenodd" clip-rule="evenodd" d="M67.9396 44.1104C66.8457 44.1104 65.9079 43.9563 65.1266 43.6479C64.3452 43.3618 63.6976 42.9433 63.1839 42.3926C62.6707 41.8641 62.2908 41.2255 62.0453 40.4769C61.7999 39.75 61.6658 38.9352 61.6658 38.0322L61.666 28.5406H65.1488V37.746C65.1488 38.3626 65.2157 38.8911 65.3722 39.3095C65.5061 39.75 65.7069 40.1022 65.9526 40.3666C66.1984 40.653 66.4884 40.8511 66.8457 40.9612C67.1806 41.0714 67.5602 41.1375 67.9844 41.1375C68.8328 41.1373 69.5251 40.8733 70.0606 40.3666C70.5744 39.8602 70.8421 38.9792 70.8421 37.746V28.5406H74.3252V38.0322C74.3252 38.9352 74.1913 39.75 73.9457 40.4989C73.7001 41.2475 73.2984 41.8863 72.7846 42.4146C72.2713 42.9654 71.6013 43.3838 70.7977 43.6699C69.9939 43.9563 69.0337 44.1104 67.9396 44.1104H67.9396Z" fill="white"/>
<path fill-rule="evenodd" clip-rule="evenodd" d="M80.1838 28.5406C80.4518 29.0251 80.7643 29.6197 81.1214 30.3245C81.4565 31.0511 81.8359 31.8221 82.2155 32.6369C82.5952 33.4738 82.9745 34.3324 83.3318 35.1913C83.7113 36.0503 84.0687 36.8651 84.4037 37.6358C84.7162 36.8651 85.0735 36.0503 85.4529 35.1913C85.8101 34.3324 86.1896 33.4738 86.5691 32.6369C86.949 31.8221 87.3285 31.0511 87.6633 30.3245C88.0205 29.6197 88.3331 29.0251 88.6011 28.5406H91.7717C91.9278 29.5536 92.0618 30.6768 92.1958 31.9321C92.3074 33.1874 92.4188 34.5086 92.5307 35.8521C92.6201 37.2173 92.7092 38.5829 92.7985 39.9482C92.8657 41.3136 92.9326 42.5907 92.9996 43.8022H89.6059C89.561 42.3267 89.494 40.697 89.4273 38.9572C89.3602 37.2173 89.2487 35.4557 89.0921 33.672C88.8242 34.2884 88.5341 34.9711 88.1993 35.72C87.8643 36.4687 87.5517 37.2173 87.2167 37.9662C86.9043 38.7149 86.5915 39.4197 86.3015 40.1022C85.9888 40.785 85.7431 41.3796 85.5422 41.8641H83.1086C82.8854 41.3796 82.6396 40.785 82.3272 40.1022C82.0368 39.4197 81.724 38.7149 81.4118 37.9662C81.077 37.2173 80.7643 36.4687 80.4294 35.72C80.1166 34.9712 79.8042 34.2886 79.5363 33.672C79.3799 35.4557 79.2683 37.2173 79.2013 38.9572C79.1344 40.697 79.0673 42.3267 79.0226 43.8022H75.6292C75.6959 42.5907 75.763 41.3137 75.852 39.9482C75.9192 38.5829 76.0087 37.2173 76.1202 35.8521C76.2096 34.5086 76.321 33.1874 76.4552 31.9321C76.567 30.6768 76.7005 29.5536 76.857 28.5406H80.1838Z" fill="white"/>
<path fill-rule="evenodd" clip-rule="evenodd" d="M59.9157 32.2899L56.4326 32.7227V43.8022H59.9157V32.2899Z" fill="white"/>
<path fill-rule="evenodd" clip-rule="evenodd" d="M56.4326 31.8778L59.9157 31.4451V28.5406H56.4326V31.8778Z" fill="#FDD028"/>
</svg>
