<svg width="20" height="21" viewBox="0 0 20 21" fill="none" xmlns="http://www.w3.org/2000/svg">
<path d="M10 0.140625C4.478 0.140625 0 4.61862 0 10.1406C0 15.6626 4.478 20.1406 10 20.1406C15.522 20.1406 20 15.6626 20 10.1406C20 4.61862 15.522 0.140625 10 0.140625ZM14.5659 7.93756C14.5703 8.03598 14.5724 8.13486 14.5724 8.23419C14.5724 11.2672 12.2638 14.7646 8.04184 14.7648H8.04199H8.04184C6.74561 14.7648 5.5394 14.3849 4.52362 13.7338C4.70322 13.755 4.88602 13.7655 5.07111 13.7655C6.14655 13.7655 7.13623 13.3987 7.92191 12.783C6.91711 12.7644 6.06995 12.1008 5.77759 11.1888C5.91751 11.2156 6.0614 11.2303 6.20895 11.2303C6.41846 11.2303 6.6214 11.202 6.81427 11.1494C5.76401 10.9391 4.97284 10.0109 4.97284 8.89948C4.97284 8.8891 4.97284 8.87979 4.97314 8.87018C5.28244 9.04214 5.63614 9.1456 6.01273 9.1572C5.39642 8.74597 4.9913 8.043 4.9913 7.24664C4.9913 6.82611 5.10498 6.43213 5.30212 6.09293C6.43402 7.48178 8.12561 8.39517 10.0333 8.49115C9.9939 8.323 9.9736 8.14783 9.9736 7.96777C9.9736 6.70068 11.0016 5.6727 12.2691 5.6727C12.9294 5.6727 13.5257 5.95178 13.9445 6.39795C14.4675 6.2948 14.9585 6.10376 15.4021 5.84085C15.2304 6.37659 14.8666 6.82611 14.3927 7.11038C14.857 7.05484 15.2995 6.9317 15.7108 6.7489C15.4036 7.20926 15.014 7.61362 14.5659 7.93756Z" fill="#DFDFDF"/>
</svg>
